<svg width="80" height="80" viewBox="0 0 80 80" fill="none" xmlns="http://www.w3.org/2000/svg">
<circle cx="40.0001" cy="39.9999" r="39.9999" transform="rotate(0.678717 40.0001 39.9999)" fill="#EDF1FF"/>
<path d="M59.4442 18.6388C58.2956 18.6388 57.3609 17.7041 57.3609 16.5554C57.3609 15.4068 58.2956 14.4721 59.4442 14.4721C60.5929 14.4721 61.5276 15.4068 61.5276 16.5554C61.5276 17.7041 60.5929 18.6388 59.4442 18.6388ZM59.4442 15.861C59.0609 15.861 58.7498 16.1721 58.7498 16.5554C58.7498 16.9388 59.0609 17.2499 59.4442 17.2499C59.8276 17.2499 60.1387 16.9388 60.1387 16.5554C60.1387 16.1721 59.8276 15.861 59.4442 15.861Z" fill="#A4AFC1"/>
<path d="M51.111 41.9025C52.0698 41.9025 52.8471 41.1252 52.8471 40.1664C52.8471 39.2076 52.0698 38.4303 51.111 38.4303C50.1521 38.4303 49.3748 39.2076 49.3748 40.1664C49.3748 41.1252 50.1521 41.9025 51.111 41.9025Z" fill="#F3F3F1"/>
<path d="M28.8889 41.9025C29.8477 41.9025 30.625 41.1252 30.625 40.1664C30.625 39.2076 29.8477 38.4303 28.8889 38.4303C27.93 38.4303 27.1527 39.2076 27.1527 40.1664C27.1527 41.1252 27.93 41.9025 28.8889 41.9025Z" fill="#F3F3F1"/>
<path d="M39.9999 42.597C41.7258 42.597 43.1249 41.1979 43.1249 39.472C43.1249 37.7462 41.7258 36.3471 39.9999 36.3471C38.274 36.3471 36.8749 37.7462 36.8749 39.472C36.8749 41.1979 38.274 42.597 39.9999 42.597Z" fill="#F3F3F1"/>
<path d="M46.5971 52.6665V49.5415C46.5971 48.0068 45.3541 46.7638 43.8194 46.7638H36.1805C34.6458 46.7638 33.4027 48.0068 33.4027 49.5415V52.6665H46.5971Z" fill="#F3F3F1"/>
<path d="M33.4027 49.8887V48.1526C33.4027 46.6179 32.1596 45.3749 30.6249 45.3749H27.1527C25.618 45.3749 24.3749 46.6179 24.3749 48.1526V49.8887H33.4027Z" fill="#F3F3F1"/>
<path d="M55.6248 49.8887V48.1526C55.6248 46.6179 54.3817 45.3749 52.847 45.3749H49.3748C47.8401 45.3749 46.597 46.6179 46.597 48.1526V49.8887H55.6248Z" fill="#F3F3F1"/>
<path d="M48.6805 34.9582C50.2082 34.9582 51.4582 33.7082 51.4582 32.1805V20.3749H28.5417V32.1805C28.5417 33.7082 29.7917 34.9582 31.3194 34.9582H48.6805Z" fill="#2F4BDF"/>
<path d="M52.4998 40.1664C52.4998 39.9025 52.5679 39.6595 52.6735 39.4359C52.3957 38.8456 51.8054 38.4303 51.111 38.4303C50.1526 38.4303 49.3748 39.2081 49.3748 40.1664C49.3748 41.1248 50.1526 41.9025 51.111 41.9025C51.8054 41.9025 52.3957 41.4872 52.6735 40.897C52.5679 40.6734 52.4998 40.4303 52.4998 40.1664Z" fill="#D5DBE1"/>
<path d="M30.2777 40.1664C30.2777 39.9025 30.3458 39.6595 30.4514 39.4359C30.1736 38.8456 29.5833 38.4303 28.8889 38.4303C27.9305 38.4303 27.1527 39.2081 27.1527 40.1664C27.1527 41.1248 27.9305 41.9025 28.8889 41.9025C29.5833 41.9025 30.1736 41.4872 30.4514 40.897C30.3458 40.6734 30.2777 40.4303 30.2777 40.1664Z" fill="#D5DBE1"/>
<path d="M39.9999 39.472C39.9999 38.3179 40.6318 37.3221 41.5624 36.7804C41.1013 36.5123 40.5721 36.3471 39.9999 36.3471C38.2735 36.3471 36.8749 37.7457 36.8749 39.472C36.8749 41.1984 38.2735 42.597 39.9999 42.597C40.5721 42.597 41.1013 42.4318 41.5624 42.1637C40.6318 41.622 39.9999 40.6262 39.9999 39.472Z" fill="#D5DBE1"/>
<path d="M39.3055 46.7638H36.1805C34.6458 46.7638 33.4027 48.0068 33.4027 49.5415V52.6665H36.5277V49.5415C36.5277 48.0068 37.7708 46.7638 39.3055 46.7638Z" fill="#D5DBE1"/>
<path d="M30.2777 45.3749H27.1527C25.618 45.3749 24.3749 46.6179 24.3749 48.1526V49.8887H27.4999V48.1526C27.4999 46.6179 28.743 45.3749 30.2777 45.3749Z" fill="#D5DBE1"/>
<path d="M52.4998 45.3749H49.3748C47.8401 45.3749 46.597 46.6179 46.597 48.1526V49.8887H49.722V48.1526C49.722 46.6179 50.9651 45.3749 52.4998 45.3749Z" fill="#D5DBE1"/>
<path d="M31.6667 32.1805V20.3749H28.5417V32.1805C28.5417 33.7082 29.7917 34.9582 31.3194 34.9582H34.4444C32.9167 34.9582 31.6667 33.7082 31.6667 32.1805Z" fill="#384AEA"/>
<path d="M25.7638 19.3334H54.236V21.4168H25.7638V19.3334Z" fill="black"/>
<path d="M48.6804 36.0001H45.5554V33.9167H48.6804C49.6373 33.9167 50.4165 33.1376 50.4165 32.1806V21.4168H29.5832V32.1806C29.5832 33.1376 30.3624 33.9167 31.3193 33.9167H34.4443V36.0001H31.3193C29.2124 36.0001 27.4999 34.2876 27.4999 32.1806V20.3751C27.4999 19.8001 27.9666 19.3334 28.5416 19.3334H51.4582C52.0332 19.3334 52.4998 19.8001 52.4998 20.3751V32.1806C52.4998 34.2876 50.7873 36.0001 48.6804 36.0001Z" fill="black"/>
<path d="M35.5275 31.5277L34.0553 30.0555L37.5275 26.5833C37.8595 26.25 38.3734 26.1819 38.7803 26.4153L40.5483 27.4264L44.5011 23.7778L45.915 25.3097L41.4011 29.4764C41.0678 29.7847 40.5733 29.8416 40.1775 29.6152L38.4386 28.6208L35.5275 31.5277Z" fill="#B1BFF4"/>
<path d="M46.25 29.0555H44.1667V25.5833H40.6945V23.4999H45.2083C45.7833 23.4999 46.25 23.9666 46.25 24.5416V29.0555Z" fill="#B1BFF4"/>
<path d="M51.1109 42.9443C49.5789 42.9443 48.3331 41.6985 48.3331 40.1666C48.3331 38.6346 49.5789 37.3888 51.1109 37.3888C52.6428 37.3888 53.8886 38.6346 53.8886 40.1666C53.8886 41.6985 52.6428 42.9443 51.1109 42.9443ZM51.1109 39.4721C50.7275 39.4721 50.4164 39.7832 50.4164 40.1666C50.4164 40.5499 50.7275 40.861 51.1109 40.861C51.4942 40.861 51.8053 40.5499 51.8053 40.1666C51.8053 39.7832 51.4942 39.4721 51.1109 39.4721Z" fill="black"/>
<path d="M56.6664 49.8889H54.5831V48.1528C54.5831 47.1959 53.8039 46.4167 52.847 46.4167H48.3331V44.3334H52.847C54.9539 44.3334 56.6664 46.0459 56.6664 48.1528V49.8889Z" fill="black"/>
<path d="M28.8888 42.9443C27.3568 42.9443 26.111 41.6985 26.111 40.1666C26.111 38.6346 27.3568 37.3888 28.8888 37.3888C30.4207 37.3888 31.6665 38.6346 31.6665 40.1666C31.6665 41.6985 30.4207 42.9443 28.8888 42.9443ZM28.8888 39.4721C28.5054 39.4721 28.1943 39.7832 28.1943 40.1666C28.1943 40.5499 28.5054 40.861 28.8888 40.861C29.2721 40.861 29.5832 40.5499 29.5832 40.1666C29.5832 39.7832 29.2721 39.4721 28.8888 39.4721Z" fill="black"/>
<path d="M25.4165 49.8889H23.3332V48.1528C23.3332 46.0459 25.0457 44.3334 27.1526 44.3334H31.6665V46.4167H27.1526C26.1957 46.4167 25.4165 47.1959 25.4165 48.1528V49.8889Z" fill="black"/>
<path d="M39.9998 43.6386C37.7026 43.6386 35.8331 41.7692 35.8331 39.472C35.8331 37.1747 37.7026 35.3053 39.9998 35.3053C42.297 35.3053 44.1664 37.1747 44.1664 39.472C44.1664 41.7692 42.297 43.6386 39.9998 43.6386ZM39.9998 37.3886C38.8512 37.3886 37.9165 38.3234 37.9165 39.472C37.9165 40.6206 38.8512 41.5553 39.9998 41.5553C41.1484 41.5553 42.0831 40.6206 42.0831 39.472C42.0831 38.3234 41.1484 37.3886 39.9998 37.3886Z" fill="black"/>
<path d="M47.6387 52.6664H45.5554V49.5415C45.5554 48.5845 44.7762 47.8054 43.8193 47.8054H36.1804C35.2235 47.8054 34.4443 48.5845 34.4443 49.5415V52.6664H32.361V49.5415C32.361 47.4345 34.0735 45.722 36.1804 45.722H43.8193C45.9262 45.722 47.6387 47.4345 47.6387 49.5415V52.6664Z" fill="black"/>
<path d="M17.7778 50.5833H62.2221V52.6667H17.7778V50.5833Z" fill="black"/>
</svg>
