<svg width="46" height="46" viewBox="0 0 46 46" fill="none" xmlns="http://www.w3.org/2000/svg">
<path d="M4.31255 33.0625C4.59577 33.0628 4.87627 33.0072 5.13793 32.8989C5.3996 32.7905 5.63727 32.6315 5.83729 32.431L17.9688 20.2993L22.9128 25.2435C23.1131 25.4437 23.3508 25.6025 23.6124 25.7109C23.874 25.8193 24.1544 25.875 24.4376 25.875C24.7207 25.875 25.0011 25.8193 25.2628 25.7109C25.5244 25.6025 25.7621 25.4437 25.9623 25.2435L39.5305 11.6752L39.5297 16.5312C39.5297 17.1031 39.7569 17.6515 40.1613 18.0559C40.5656 18.4603 41.1141 18.6875 41.686 18.6875C42.2578 18.6875 42.8063 18.4603 43.2107 18.0559C43.615 17.6515 43.8422 17.1031 43.8422 16.5312L43.8438 6.46869C43.8438 5.89682 43.6167 5.34837 43.2123 4.94399C42.8079 4.53961 42.2595 4.31244 41.6876 4.31244H31.6251C31.0532 4.31244 30.5048 4.53961 30.1004 4.94399C29.696 5.34837 29.4688 5.89682 29.4688 6.46869C29.4688 7.04056 29.696 7.58902 30.1004 7.99339C30.5048 8.39777 31.0532 8.62494 31.6251 8.62494H36.4819L24.4376 20.6693L19.4936 15.7252C19.2933 15.525 19.0556 15.3661 18.794 15.2578C18.5324 15.1494 18.252 15.0936 17.9688 15.0936C17.6856 15.0936 17.4052 15.1494 17.1436 15.2578C16.882 15.3661 16.6443 15.525 16.4441 15.7252L2.78781 29.3815C2.48624 29.683 2.28086 30.0672 2.19766 30.4855C2.11445 30.9038 2.15715 31.3374 2.32036 31.7314C2.48357 32.1254 2.75995 32.4622 3.11456 32.6991C3.46917 32.936 3.88607 33.0625 4.31255 33.0625Z" fill="white"/>
<path d="M41.6876 37.3749H4.31259C3.74072 37.3749 3.19227 37.6021 2.78789 38.0064C2.38352 38.4108 2.15634 38.9593 2.15634 39.5311C2.15634 40.103 2.38352 40.6515 2.78789 41.0558C3.19227 41.4602 3.74072 41.6874 4.31259 41.6874H41.6876C42.2595 41.6874 42.808 41.4602 43.2123 41.0558C43.6167 40.6515 43.8439 40.103 43.8439 39.5311C43.8439 38.9593 43.6167 38.4108 43.2123 38.0064C42.808 37.6021 42.2595 37.3749 41.6876 37.3749Z" fill="white"/>
</svg>
