<svg width="42" height="42" viewBox="0 0 42 42" fill="none" xmlns="http://www.w3.org/2000/svg">
<path d="M20.9999 41.9997C32.5978 41.9997 41.9997 32.5978 41.9997 20.9999C41.9997 9.40196 32.5978 0 20.9999 0C9.40196 0 0 9.40196 0 20.9999C0 32.5978 9.40196 41.9997 20.9999 41.9997Z" fill="#373C59"/>
<path d="M27.517 13.0583C27.2305 13.0583 26.9505 13.1433 26.7123 13.3024C26.4742 13.4615 26.2886 13.6877 26.179 13.9524C26.0694 14.217 26.0407 14.5082 26.0965 14.7891C26.1524 15.0701 26.2903 15.3281 26.4929 15.5307C26.6954 15.7332 26.9535 15.8711 27.2345 15.927C27.5154 15.9829 27.8066 15.9542 28.0712 15.8446C28.3359 15.735 28.562 15.5494 28.7212 15.3112C28.8803 15.073 28.9653 14.793 28.9653 14.5066C28.9653 14.1225 28.8126 13.7541 28.541 13.4825C28.2694 13.2109 27.9011 13.0583 27.517 13.0583Z" fill="white"/>
<path d="M21.0947 14.9094C19.8949 14.9094 18.7221 15.2652 17.7245 15.9317C16.727 16.5983 15.9495 17.5457 15.4904 18.6541C15.0313 19.7625 14.9111 20.9822 15.1451 22.159C15.3792 23.3357 15.9569 24.4165 16.8053 25.2649C17.6537 26.1133 18.7346 26.691 19.9113 26.9251C21.088 27.1591 22.3077 27.039 23.4161 26.5799C24.5245 26.1207 25.472 25.3432 26.1385 24.3457C26.8051 23.3481 27.1608 22.1753 27.1608 20.9755C27.1608 20.1789 27.0039 19.3901 26.699 18.6541C26.3942 17.9181 25.9474 17.2494 25.3841 16.6861C24.8208 16.1228 24.1521 15.676 23.4161 15.3712C22.6801 15.0663 21.8913 14.9094 21.0947 14.9094ZM21.0947 24.8573C20.3275 24.855 19.5781 24.6253 18.9413 24.1974C18.3045 23.7694 17.8089 23.1623 17.5169 22.4528C17.2249 21.7433 17.1497 20.9632 17.3008 20.211C17.4519 19.4587 17.8226 18.7682 18.3659 18.2265C18.9093 17.6848 19.601 17.3162 20.3536 17.1674C21.1063 17.0186 21.8862 17.0962 22.5948 17.3903C23.3034 17.6845 23.909 18.182 24.335 18.8201C24.7611 19.4582 24.9884 20.2083 24.9884 20.9755C24.9853 22.0061 24.5737 22.9935 23.8438 23.7211C23.1139 24.4487 22.1253 24.8573 21.0947 24.8573Z" fill="white"/>
<path d="M25.9143 33.2853H16.0851C15.1139 33.2853 14.1521 33.094 13.2548 32.7224C12.3576 32.3507 11.5423 31.806 10.8556 31.1192C10.1688 30.4325 9.62402 29.6172 9.25235 28.7199C8.88068 27.8226 8.68937 26.8609 8.68937 25.8897V16.0605C8.68937 14.099 9.46861 12.2179 10.8556 10.8309C12.2425 9.44399 14.1236 8.6648 16.0851 8.6648H25.9143C27.8757 8.6648 29.7568 9.44399 31.1438 10.8309C32.5307 12.2179 33.3099 14.099 33.3099 16.0605V25.8897C33.3099 26.8609 33.1187 27.8226 32.747 28.7199C32.3753 29.6172 31.8305 30.4325 31.1438 31.1192C30.457 31.806 29.6417 32.3507 28.7444 32.7224C27.8471 33.094 26.8855 33.2853 25.9143 33.2853ZM16.0851 10.9797C14.7376 10.9797 13.4452 11.515 12.4924 12.4678C11.5396 13.4206 11.0042 14.7129 11.0042 16.0605V25.8897C11.0011 26.5589 11.1303 27.2221 11.3842 27.8413C11.6381 28.4605 12.0119 29.0234 12.484 29.4977C12.9561 29.972 13.5173 30.3484 14.1352 30.6052C14.7532 30.862 15.4159 30.9942 16.0851 30.9942H25.9143C26.5815 30.9942 27.2422 30.8628 27.8586 30.6075C28.475 30.3521 29.0351 29.9779 29.5069 29.5061C29.9787 29.0343 30.353 28.4742 30.6083 27.8578C30.8637 27.2413 30.9951 26.5806 30.9951 25.9134V16.0605C30.9951 14.7129 30.4598 13.4206 29.5069 12.4678C28.5541 11.515 27.2618 10.9797 25.9143 10.9797H16.0851Z" fill="white"/>
</svg>
