<svg width="49" height="25" viewBox="0 0 49 25" fill="none" xmlns="http://www.w3.org/2000/svg">
<circle cx="0.980985" cy="23.8449" r="0.979991" transform="rotate(-90 0.980985 23.8449)" fill="#B8BBD2"/>
<circle cx="6.86029" cy="23.8461" r="0.979991" transform="rotate(-90 6.86029 23.8461)" fill="#B8BBD2"/>
<circle cx="12.7401" cy="23.8461" r="0.979991" transform="rotate(-90 12.7401 23.8461)" fill="#B8BBD2"/>
<circle cx="18.6204" cy="23.8461" r="0.979991" transform="rotate(-90 18.6204 23.8461)" fill="#B8BBD2"/>
<circle cx="24.4997" cy="23.8461" r="0.979991" transform="rotate(-90 24.4997 23.8461)" fill="#B8BBD2"/>
<circle cx="30.3795" cy="23.8461" r="0.979991" transform="rotate(-90 30.3795 23.8461)" fill="#B8BBD2"/>
<circle cx="36.2603" cy="23.8461" r="0.979991" transform="rotate(-90 36.2603 23.8461)" fill="#B8BBD2"/>
<circle cx="42.1396" cy="23.8461" r="0.979991" transform="rotate(-90 42.1396 23.8461)" fill="#B8BBD2"/>
<circle cx="48.0199" cy="23.8461" r="0.979991" transform="rotate(-90 48.0199 23.8461)" fill="#B8BBD2"/>
<circle cx="0.979991" cy="19.273" r="0.979991" transform="rotate(-90 0.979991 19.273)" fill="#B8BBD2"/>
<circle cx="6.86029" cy="19.273" r="0.979991" transform="rotate(-90 6.86029 19.273)" fill="#B8BBD2"/>
<circle cx="12.7401" cy="19.273" r="0.979991" transform="rotate(-90 12.7401 19.273)" fill="#B8BBD2"/>
<circle cx="18.6204" cy="19.273" r="0.979991" transform="rotate(-90 18.6204 19.273)" fill="#B8BBD2"/>
<circle cx="24.4997" cy="19.273" r="0.979991" transform="rotate(-90 24.4997 19.273)" fill="#B8BBD2"/>
<circle cx="30.3795" cy="19.273" r="0.979991" transform="rotate(-90 30.3795 19.273)" fill="#B8BBD2"/>
<circle cx="36.2603" cy="19.273" r="0.979991" transform="rotate(-90 36.2603 19.273)" fill="#B8BBD2"/>
<circle cx="42.1396" cy="19.273" r="0.979991" transform="rotate(-90 42.1396 19.273)" fill="#B8BBD2"/>
<circle cx="48.0199" cy="19.273" r="0.979991" transform="rotate(-90 48.0199 19.273)" fill="#B8BBD2"/>
<circle cx="0.979991" cy="14.6993" r="0.979991" transform="rotate(-90 0.979991 14.6993)" fill="#B8BBD2"/>
<circle cx="6.86029" cy="14.6993" r="0.979991" transform="rotate(-90 6.86029 14.6993)" fill="#B8BBD2"/>
<circle cx="12.7401" cy="14.6993" r="0.979991" transform="rotate(-90 12.7401 14.6993)" fill="#B8BBD2"/>
<circle cx="18.6204" cy="14.6993" r="0.979991" transform="rotate(-90 18.6204 14.6993)" fill="#B8BBD2"/>
<circle cx="24.4997" cy="14.6993" r="0.979991" transform="rotate(-90 24.4997 14.6993)" fill="#B8BBD2"/>
<circle cx="30.3795" cy="14.6993" r="0.979991" transform="rotate(-90 30.3795 14.6993)" fill="#B8BBD2"/>
<circle cx="36.2603" cy="14.6993" r="0.979991" transform="rotate(-90 36.2603 14.6993)" fill="#B8BBD2"/>
<circle cx="42.1396" cy="14.6993" r="0.979991" transform="rotate(-90 42.1396 14.6993)" fill="#B8BBD2"/>
<circle cx="48.0199" cy="14.6993" r="0.979991" transform="rotate(-90 48.0199 14.6993)" fill="#B8BBD2"/>
<circle cx="0.979991" cy="10.1267" r="0.979991" transform="rotate(-90 0.979991 10.1267)" fill="#B8BBD2"/>
<circle cx="6.86029" cy="10.1267" r="0.979991" transform="rotate(-90 6.86029 10.1267)" fill="#B8BBD2"/>
<circle cx="12.7401" cy="10.1267" r="0.979991" transform="rotate(-90 12.7401 10.1267)" fill="#B8BBD2"/>
<circle cx="18.6204" cy="10.1267" r="0.979991" transform="rotate(-90 18.6204 10.1267)" fill="#B8BBD2"/>
<circle cx="24.4997" cy="10.1267" r="0.979991" transform="rotate(-90 24.4997 10.1267)" fill="#B8BBD2"/>
<circle cx="30.3795" cy="10.1267" r="0.979991" transform="rotate(-90 30.3795 10.1267)" fill="#B8BBD2"/>
<circle cx="36.2603" cy="10.1267" r="0.979991" transform="rotate(-90 36.2603 10.1267)" fill="#B8BBD2"/>
<circle cx="42.1396" cy="10.1267" r="0.979991" transform="rotate(-90 42.1396 10.1267)" fill="#B8BBD2"/>
<circle cx="48.0199" cy="10.1267" r="0.979991" transform="rotate(-90 48.0199 10.1267)" fill="#B8BBD2"/>
<circle cx="0.979991" cy="5.55301" r="0.979991" transform="rotate(-90 0.979991 5.55301)" fill="#B8BBD2"/>
<circle cx="6.86029" cy="5.55301" r="0.979991" transform="rotate(-90 6.86029 5.55301)" fill="#B8BBD2"/>
<circle cx="12.7401" cy="5.55301" r="0.979991" transform="rotate(-90 12.7401 5.55301)" fill="#B8BBD2"/>
<circle cx="18.6204" cy="5.55301" r="0.979991" transform="rotate(-90 18.6204 5.55301)" fill="#B8BBD2"/>
<circle cx="24.4997" cy="5.55301" r="0.979991" transform="rotate(-90 24.4997 5.55301)" fill="#B8BBD2"/>
<circle cx="30.3795" cy="5.55301" r="0.979991" transform="rotate(-90 30.3795 5.55301)" fill="#B8BBD2"/>
<circle cx="36.2603" cy="5.55301" r="0.979991" transform="rotate(-90 36.2603 5.55301)" fill="#B8BBD2"/>
<circle cx="42.1396" cy="5.55301" r="0.979991" transform="rotate(-90 42.1396 5.55301)" fill="#B8BBD2"/>
<circle cx="48.0199" cy="5.55301" r="0.979991" transform="rotate(-90 48.0199 5.55301)" fill="#B8BBD2"/>
<circle cx="0.979991" cy="0.980108" r="0.979991" transform="rotate(-90 0.979991 0.980108)" fill="#B8BBD2"/>
<circle cx="6.86029" cy="0.980108" r="0.979991" transform="rotate(-90 6.86029 0.980108)" fill="#B8BBD2"/>
<circle cx="12.7401" cy="0.980108" r="0.979991" transform="rotate(-90 12.7401 0.980108)" fill="#B8BBD2"/>
<circle cx="18.6204" cy="0.980108" r="0.979991" transform="rotate(-90 18.6204 0.980108)" fill="#B8BBD2"/>
<circle cx="24.4997" cy="0.980108" r="0.979991" transform="rotate(-90 24.4997 0.980108)" fill="#B8BBD2"/>
<circle cx="30.3795" cy="0.980108" r="0.979991" transform="rotate(-90 30.3795 0.980108)" fill="#B8BBD2"/>
<circle cx="36.2603" cy="0.980108" r="0.979991" transform="rotate(-90 36.2603 0.980108)" fill="#B8BBD2"/>
<circle cx="42.1396" cy="0.980108" r="0.979991" transform="rotate(-90 42.1396 0.980108)" fill="#B8BBD2"/>
<circle cx="48.0199" cy="0.980108" r="0.979991" transform="rotate(-90 48.0199 0.980108)" fill="#B8BBD2"/>
</svg>
