<svg width="127" height="64" viewBox="0 0 127 64" fill="none" xmlns="http://www.w3.org/2000/svg">
<circle cx="2.52632" cy="61.4737" r="2.52632" transform="rotate(-90 2.52632 61.4737)" fill="#B8BBD2"/>
<circle cx="17.6844" cy="61.4737" r="2.52632" transform="rotate(-90 17.6844 61.4737)" fill="#B8BBD2"/>
<circle cx="32.8424" cy="61.4737" r="2.52632" transform="rotate(-90 32.8424 61.4737)" fill="#B8BBD2"/>
<circle cx="48.0002" cy="61.4737" r="2.52632" transform="rotate(-90 48.0002 61.4737)" fill="#B8BBD2"/>
<circle cx="63.1583" cy="61.4737" r="2.52632" transform="rotate(-90 63.1583 61.4737)" fill="#B8BBD2"/>
<circle cx="78.3161" cy="61.4737" r="2.52632" transform="rotate(-90 78.3161 61.4737)" fill="#B8BBD2"/>
<circle cx="93.4741" cy="61.4737" r="2.52632" transform="rotate(-90 93.4741 61.4737)" fill="#B8BBD2"/>
<circle cx="108.632" cy="61.4737" r="2.52632" transform="rotate(-90 108.632 61.4737)" fill="#B8BBD2"/>
<circle cx="123.79" cy="61.4737" r="2.52632" transform="rotate(-90 123.79 61.4737)" fill="#B8BBD2"/>
<circle cx="2.52657" cy="49.6842" r="2.52632" transform="rotate(-90 2.52657 49.6842)" fill="#B8BBD2"/>
<circle cx="17.6844" cy="49.6842" r="2.52632" transform="rotate(-90 17.6844 49.6842)" fill="#B8BBD2"/>
<circle cx="32.8424" cy="49.6842" r="2.52632" transform="rotate(-90 32.8424 49.6842)" fill="#B8BBD2"/>
<circle cx="48.0002" cy="49.6842" r="2.52632" transform="rotate(-90 48.0002 49.6842)" fill="#B8BBD2"/>
<circle cx="63.1583" cy="49.6842" r="2.52632" transform="rotate(-90 63.1583 49.6842)" fill="#B8BBD2"/>
<circle cx="78.3161" cy="49.6842" r="2.52632" transform="rotate(-90 78.3161 49.6842)" fill="#B8BBD2"/>
<circle cx="93.4741" cy="49.6842" r="2.52632" transform="rotate(-90 93.4741 49.6842)" fill="#B8BBD2"/>
<circle cx="108.632" cy="49.6842" r="2.52632" transform="rotate(-90 108.632 49.6842)" fill="#B8BBD2"/>
<circle cx="123.79" cy="49.6842" r="2.52632" transform="rotate(-90 123.79 49.6842)" fill="#B8BBD2"/>
<circle cx="2.52657" cy="37.8947" r="2.52632" transform="rotate(-90 2.52657 37.8947)" fill="#B8BBD2"/>
<circle cx="17.6844" cy="37.8947" r="2.52632" transform="rotate(-90 17.6844 37.8947)" fill="#B8BBD2"/>
<circle cx="32.8424" cy="37.8947" r="2.52632" transform="rotate(-90 32.8424 37.8947)" fill="#B8BBD2"/>
<circle cx="48.0002" cy="37.8947" r="2.52632" transform="rotate(-90 48.0002 37.8947)" fill="#B8BBD2"/>
<circle cx="63.1583" cy="37.8947" r="2.52632" transform="rotate(-90 63.1583 37.8947)" fill="#B8BBD2"/>
<circle cx="78.3161" cy="37.8947" r="2.52632" transform="rotate(-90 78.3161 37.8947)" fill="#B8BBD2"/>
<circle cx="93.4741" cy="37.8947" r="2.52632" transform="rotate(-90 93.4741 37.8947)" fill="#B8BBD2"/>
<circle cx="108.632" cy="37.8947" r="2.52632" transform="rotate(-90 108.632 37.8947)" fill="#B8BBD2"/>
<circle cx="123.79" cy="37.8947" r="2.52632" transform="rotate(-90 123.79 37.8947)" fill="#B8BBD2"/>
<circle cx="2.52657" cy="26.1051" r="2.52632" transform="rotate(-90 2.52657 26.1051)" fill="#B8BBD2"/>
<circle cx="17.6844" cy="26.1051" r="2.52632" transform="rotate(-90 17.6844 26.1051)" fill="#B8BBD2"/>
<circle cx="32.8424" cy="26.1051" r="2.52632" transform="rotate(-90 32.8424 26.1051)" fill="#B8BBD2"/>
<circle cx="48.0002" cy="26.1051" r="2.52632" transform="rotate(-90 48.0002 26.1051)" fill="#B8BBD2"/>
<circle cx="63.1583" cy="26.1051" r="2.52632" transform="rotate(-90 63.1583 26.1051)" fill="#B8BBD2"/>
<circle cx="78.3161" cy="26.1051" r="2.52632" transform="rotate(-90 78.3161 26.1051)" fill="#B8BBD2"/>
<circle cx="93.4741" cy="26.1051" r="2.52632" transform="rotate(-90 93.4741 26.1051)" fill="#B8BBD2"/>
<circle cx="108.632" cy="26.1051" r="2.52632" transform="rotate(-90 108.632 26.1051)" fill="#B8BBD2"/>
<circle cx="123.79" cy="26.1051" r="2.52632" transform="rotate(-90 123.79 26.1051)" fill="#B8BBD2"/>
<circle cx="2.52657" cy="14.3156" r="2.52632" transform="rotate(-90 2.52657 14.3156)" fill="#B8BBD2"/>
<circle cx="17.6844" cy="14.3156" r="2.52632" transform="rotate(-90 17.6844 14.3156)" fill="#B8BBD2"/>
<circle cx="32.8424" cy="14.3156" r="2.52632" transform="rotate(-90 32.8424 14.3156)" fill="#B8BBD2"/>
<circle cx="48.0002" cy="14.3156" r="2.52632" transform="rotate(-90 48.0002 14.3156)" fill="#B8BBD2"/>
<circle cx="63.1583" cy="14.3156" r="2.52632" transform="rotate(-90 63.1583 14.3156)" fill="#B8BBD2"/>
<circle cx="78.3161" cy="14.3156" r="2.52632" transform="rotate(-90 78.3161 14.3156)" fill="#B8BBD2"/>
<circle cx="93.4741" cy="14.3156" r="2.52632" transform="rotate(-90 93.4741 14.3156)" fill="#B8BBD2"/>
<circle cx="108.632" cy="14.3156" r="2.52632" transform="rotate(-90 108.632 14.3156)" fill="#B8BBD2"/>
<circle cx="123.79" cy="14.3156" r="2.52632" transform="rotate(-90 123.79 14.3156)" fill="#B8BBD2"/>
<circle cx="2.52657" cy="2.52611" r="2.52632" transform="rotate(-90 2.52657 2.52611)" fill="#B8BBD2"/>
<circle cx="17.6844" cy="2.52611" r="2.52632" transform="rotate(-90 17.6844 2.52611)" fill="#B8BBD2"/>
<circle cx="32.8424" cy="2.52611" r="2.52632" transform="rotate(-90 32.8424 2.52611)" fill="#B8BBD2"/>
<circle cx="48.0002" cy="2.52611" r="2.52632" transform="rotate(-90 48.0002 2.52611)" fill="#B8BBD2"/>
<circle cx="63.1583" cy="2.52611" r="2.52632" transform="rotate(-90 63.1583 2.52611)" fill="#B8BBD2"/>
<circle cx="78.3161" cy="2.52611" r="2.52632" transform="rotate(-90 78.3161 2.52611)" fill="#B8BBD2"/>
<circle cx="93.4741" cy="2.52611" r="2.52632" transform="rotate(-90 93.4741 2.52611)" fill="#B8BBD2"/>
<circle cx="108.632" cy="2.52611" r="2.52632" transform="rotate(-90 108.632 2.52611)" fill="#B8BBD2"/>
<circle cx="123.79" cy="2.52611" r="2.52632" transform="rotate(-90 123.79 2.52611)" fill="#B8BBD2"/>
</svg>
