<svg width="80" height="203" viewBox="0 0 80 203" fill="none" xmlns="http://www.w3.org/2000/svg">
<circle cx="40" cy="162.128" r="40" fill="#EDF1FF"/>
<path d="M21.2925 4.43042H24.1703V5.79346H21.2925V4.43042Z" fill="#A4AFC1"/>
<path d="M25.9688 0H27.4077V2.72656H25.9688V0Z" fill="#A4AFC1"/>
<path d="M56.1853 4.43042H59.0631V5.79346H56.1853V4.43042Z" fill="#A4AFC1"/>
<path d="M52.9478 0H54.3867V2.72656H52.9478V0Z" fill="#A4AFC1"/>
<path d="M29.386 26.4121C30.7767 26.4121 31.9041 25.344 31.9041 24.0265C31.9041 22.7089 30.7767 21.6409 29.386 21.6409C27.9953 21.6409 26.8679 22.7089 26.8679 24.0265C26.8679 25.344 27.9953 26.4121 29.386 26.4121Z" fill="#F3F3F1"/>
<path d="M34.7819 34.2502V32.5462C34.7819 31.0399 33.4941 29.8198 31.9041 29.8198H26.868C25.278 29.8198 23.9902 31.0399 23.9902 32.5462V34.2502H34.7819Z" fill="#F3F3F1"/>
<path d="M50.9692 26.4121C52.3599 26.4121 53.4873 25.344 53.4873 24.0265C53.4873 22.7089 52.3599 21.6409 50.9692 21.6409C49.5785 21.6409 48.4512 22.7089 48.4512 24.0265C48.4512 25.344 49.5785 26.4121 50.9692 26.4121Z" fill="#F3F3F1"/>
<path d="M56.3652 34.2502V32.5462C56.3652 31.0399 55.0774 29.8198 53.4874 29.8198H48.4513C46.8613 29.8198 45.5735 31.0399 45.5735 32.5462V34.2502H56.3652Z" fill="#F3F3F1"/>
<path d="M35.8683 14.0575C34.0438 12.6439 32.9934 10.3632 33.4495 7.87815C33.9157 5.32898 36.0395 3.22831 38.713 2.70075C43.1246 1.83104 47.0125 5.00318 47.0125 9.03141C47.0125 11.1075 45.9765 12.9547 44.3736 14.1434C43.4225 14.8495 42.9117 15.9632 42.9117 17.1097V21.0275C42.9117 21.7391 42.2958 22.3225 41.5447 22.3225H38.8108C38.0597 22.3225 37.4439 21.7527 37.4439 20.6512V17.1097C37.4439 15.9155 36.8439 14.8127 35.8683 14.0575Z" fill="#2F4BDF"/>
<path d="M30.1054 24.0265C30.1054 23.2958 30.4594 22.651 31.0048 22.2134C30.5659 21.8617 30.0062 21.6409 29.386 21.6409C27.996 21.6409 26.8679 22.7096 26.8679 24.0265C26.8679 25.3434 27.996 26.4121 29.386 26.4121C30.0062 26.4121 30.5659 26.1913 31.0048 25.8396C30.4594 25.402 30.1054 24.7572 30.1054 24.0265Z" fill="#D5DBE1"/>
<path d="M30.1055 29.8198H26.868C25.278 29.8198 23.9902 31.0399 23.9902 32.5462V34.2502H27.2277V32.5462C27.2277 31.0399 28.5156 29.8198 30.1055 29.8198Z" fill="#D5DBE1"/>
<path d="M51.6887 24.0265C51.6887 23.2958 52.0427 22.651 52.588 22.2134C52.1491 21.8617 51.5894 21.6409 50.9692 21.6409C49.5793 21.6409 48.4512 22.7096 48.4512 24.0265C48.4512 25.3434 49.5793 26.4121 50.9692 26.4121C51.5894 26.4121 52.1491 26.1913 52.588 25.8396C52.0427 25.402 51.6887 24.7572 51.6887 24.0265Z" fill="#D5DBE1"/>
<path d="M51.6888 29.8198H48.4513C46.8613 29.8198 45.5735 31.0399 45.5735 32.5462V34.2502H48.811V32.5462C48.811 31.0399 50.0988 29.8198 51.6888 29.8198Z" fill="#D5DBE1"/>
<path d="M40.6813 20.6512V17.1096C40.6813 15.9155 40.0813 14.8127 39.1057 14.0561C37.2812 12.6424 36.2308 10.3618 36.6869 7.87671C37.1445 5.37797 39.1978 3.31818 41.7978 2.74155C40.8324 2.52071 39.7892 2.488 38.7129 2.70065C36.0394 3.22821 33.9156 5.3289 33.4494 7.87808C32.9948 10.3632 34.0451 12.6438 35.8682 14.0574C36.8438 14.814 37.4438 15.9168 37.4438 17.111V20.6526C37.4438 21.7527 38.0596 22.3225 38.8107 22.3225H41.5446C41.6352 22.3225 41.7158 22.2898 41.8007 22.2734C41.1705 22.1562 40.6813 21.6246 40.6813 20.6512Z" fill="#384AEA"/>
<path d="M37.4438 17.2102H42.913V19.2554H37.4438V17.2102Z" fill="black"/>
<path d="M41.5446 23.3445H38.8107C37.6322 23.3445 36.3646 22.502 36.3646 20.6509V17.1094C36.3646 16.2533 35.9343 15.4286 35.1861 14.8479C32.9342 13.103 31.8867 10.4326 32.386 7.70349C32.9314 4.72497 35.3861 2.31216 38.4927 1.7001C40.8798 1.23253 43.3115 1.78325 45.1691 3.21321C47.0253 4.64454 48.0915 6.76563 48.0915 9.03121C48.0915 11.3513 46.9792 13.5079 45.0396 14.9474C44.3835 15.434 43.9907 16.2424 43.9907 17.108V21.0271C43.9907 22.3044 42.8942 23.3445 41.5446 23.3445ZM40.1618 3.58127C39.7531 3.58127 39.3416 3.6208 38.9315 3.70123C36.684 4.14426 34.907 5.8932 34.5127 8.0511C34.1487 10.044 34.9098 11.9934 36.5516 13.2639C37.8049 14.2344 38.5229 15.6371 38.5229 17.108V20.6495C38.5229 20.7163 38.5315 21.2984 38.8107 21.2984H41.5446C41.7 21.2984 41.8323 21.173 41.8323 21.0257V17.1066C41.8323 15.618 42.5331 14.2085 43.7072 13.3361C45.1231 12.2878 45.9332 10.7188 45.9332 9.03121C45.9332 7.38451 45.1576 5.8414 43.805 4.79994C42.7719 4.00249 41.4884 3.58127 40.1618 3.58127Z" fill="black"/>
<path d="M44.4943 9.71289H42.336V8.69048C42.336 7.75123 41.5288 6.98647 40.5374 6.98647H39.4583V4.94165H40.5374C42.7202 4.94165 44.4943 6.62249 44.4943 8.69048V9.71289Z" fill="#B1BFF4"/>
<path d="M29.386 27.4343C27.4018 27.4343 25.7888 25.9049 25.7888 24.0265C25.7888 22.1481 27.4018 20.6187 29.386 20.6187C31.3702 20.6187 32.9832 22.1481 32.9832 24.0265C32.9832 25.9049 31.3702 27.4343 29.386 27.4343ZM29.386 22.6634C28.5918 22.6634 27.9471 23.2754 27.9471 24.0265C27.9471 24.7776 28.5918 25.3896 29.386 25.3896C30.1803 25.3896 30.8249 24.7776 30.8249 24.0265C30.8249 23.2754 30.1803 22.6634 29.386 22.6634Z" fill="black"/>
<path d="M35.8611 34.2502H33.7028V32.5462C33.7028 31.607 32.8955 30.8422 31.9042 30.8422H26.8681C25.8767 30.8422 25.0695 31.607 25.0695 32.5462V34.2502H22.9111V32.5462C22.9111 30.4782 24.6853 28.7974 26.8681 28.7974H31.9042C34.0869 28.7974 35.8611 30.4782 35.8611 32.5462V34.2502Z" fill="black"/>
<path d="M50.9693 27.4343C48.9851 27.4343 47.3721 25.9049 47.3721 24.0265C47.3721 22.1481 48.9851 20.6187 50.9693 20.6187C52.9535 20.6187 54.5665 22.1481 54.5665 24.0265C54.5665 25.9049 52.9535 27.4343 50.9693 27.4343ZM50.9693 22.6634C50.175 22.6634 49.5304 23.2754 49.5304 24.0265C49.5304 24.7776 50.175 25.3896 50.9693 25.3896C51.7636 25.3896 52.4082 24.7776 52.4082 24.0265C52.4082 23.2754 51.7636 22.6634 50.9693 22.6634Z" fill="black"/>
<path d="M57.4443 34.2502H55.286V32.5462C55.286 31.607 54.4788 30.8422 53.4874 30.8422H48.4513C47.4599 30.8422 46.6527 31.607 46.6527 32.5462V34.2502H44.4944V32.5462C44.4944 30.4782 46.2685 28.7974 48.4513 28.7974H53.4874C55.6702 28.7974 57.4443 30.4782 57.4443 32.5462V34.2502Z" fill="black"/>
<path d="M17.1555 32.2056H63.2V34.2502H17.1555V32.2056Z" fill="black"/>
</svg>
