<svg width="50" height="50" viewBox="0 0 50 50" fill="none" xmlns="http://www.w3.org/2000/svg">
<g clip-path="url(#clip0_4621_177)">
<path d="M12.5001 0C11.5138 0 10.7144 0.79949 10.7144 1.78575V5.35714H14.2857V1.78575C14.2857 0.79949 13.4863 0 12.5001 0Z" fill="white"/>
<path d="M37.4999 0C36.5136 0 35.7141 0.79949 35.7141 1.78575V5.35714H39.2855V1.78575C39.2856 0.79949 38.4861 0 37.4999 0Z" fill="white"/>
<path d="M44.6429 5.35693H39.2857V12.4998C39.2857 13.4861 38.4862 14.2856 37.5 14.2856C36.5137 14.2856 35.7142 13.4861 35.7142 12.4998V5.35693H14.2857V12.4998C14.2857 13.4861 13.4862 14.2856 12.4999 14.2856C11.5137 14.2856 10.7142 13.4861 10.7142 12.4998V5.35693H5.35714C2.39847 5.35693 0 7.7554 0 10.7141V44.6427C0 47.6013 2.39847 49.9998 5.35714 49.9998H44.6429C47.6015 49.9998 50 47.6013 50 44.6427V10.7141C50 7.7554 47.6015 5.35693 44.6429 5.35693ZM46.4285 44.6427C46.4285 45.6289 45.629 46.4284 44.6428 46.4284H5.35714C4.37088 46.4284 3.57139 45.6289 3.57139 44.6427V21.4284H46.4285V44.6427Z" fill="white"/>
<path d="M14.2856 25H10.7142C9.72796 25 8.92847 25.7995 8.92847 26.7857C8.92847 27.772 9.72796 28.5715 10.7142 28.5715H14.2856C15.2719 28.5715 16.0714 27.772 16.0714 26.7857C16.0714 25.7995 15.2719 25 14.2856 25Z" fill="white"/>
<path d="M26.7856 25H23.2142C22.228 25 21.4285 25.7995 21.4285 26.7857C21.4285 27.772 22.228 28.5715 23.2142 28.5715H26.7856C27.7719 28.5715 28.5713 27.772 28.5713 26.7857C28.5713 25.7995 27.7719 25 26.7856 25Z" fill="white"/>
<path d="M39.2859 25H35.7145C34.7282 25 33.9287 25.7995 33.9287 26.7857C33.9287 27.772 34.7282 28.5715 35.7145 28.5715H39.2859C40.2721 28.5715 41.0716 27.772 41.0716 26.7857C41.0716 25.7995 40.272 25 39.2859 25Z" fill="white"/>
<path d="M14.2856 32.1426H10.7142C9.72796 32.1426 8.92847 32.9421 8.92847 33.9283C8.92847 34.9146 9.72796 35.7141 10.7142 35.7141H14.2856C15.2719 35.7141 16.0714 34.9146 16.0714 33.9283C16.0714 32.9421 15.2719 32.1426 14.2856 32.1426Z" fill="white"/>
<path d="M26.7856 32.1426H23.2142C22.228 32.1426 21.4285 32.9421 21.4285 33.9283C21.4285 34.9146 22.228 35.7141 23.2142 35.7141H26.7856C27.7719 35.7141 28.5713 34.9146 28.5713 33.9283C28.5713 32.9421 27.7719 32.1426 26.7856 32.1426Z" fill="white"/>
<path d="M39.2859 32.1426H35.7145C34.7282 32.1426 33.9287 32.9421 33.9287 33.9283C33.9287 34.9146 34.7282 35.7141 35.7145 35.7141H39.2859C40.2721 35.7141 41.0716 34.9146 41.0716 33.9283C41.0715 32.9421 40.272 32.1426 39.2859 32.1426Z" fill="white"/>
<path d="M14.2856 39.2856H10.7142C9.72796 39.2856 8.92847 40.0851 8.92847 41.0714C8.92847 42.0576 9.72796 42.857 10.7142 42.857H14.2856C15.2719 42.857 16.0714 42.0575 16.0714 41.0713C16.0714 40.085 15.2719 39.2856 14.2856 39.2856Z" fill="white"/>
<path d="M26.7856 39.2856H23.2142C22.228 39.2856 21.4285 40.0851 21.4285 41.0714C21.4285 42.0577 22.228 42.8571 23.2142 42.8571H26.7856C27.7719 42.8571 28.5713 42.0577 28.5713 41.0714C28.5713 40.0851 27.7719 39.2856 26.7856 39.2856Z" fill="white"/>
<path d="M39.2859 39.2856H35.7145C34.7282 39.2856 33.9287 40.0851 33.9287 41.0714C33.9287 42.0577 34.7282 42.8571 35.7145 42.8571H39.2859C40.2721 42.8571 41.0716 42.0577 41.0716 41.0714C41.0716 40.0851 40.272 39.2856 39.2859 39.2856Z" fill="white"/>
</g>
<defs>
<clipPath id="clip0_4621_177">
<rect width="50" height="50" fill="white"/>
</clipPath>
</defs>
</svg>
