<svg width="23" height="17" viewBox="0 0 23 17" fill="none" xmlns="http://www.w3.org/2000/svg">
<path d="M22.9999 5.04906C22.9999 3.70997 22.468 2.4257 21.5211 1.47882C20.5742 0.531936 19.29 0 17.9509 0H5.04906C3.70997 0 2.42567 0.531936 1.47878 1.47882C0.5319 2.4257 0 3.70997 0 5.04906V10.9891C0 12.3282 0.5319 13.6125 1.47878 14.5594C2.42567 15.5063 3.70997 16.0382 5.04906 16.0382H17.9509C19.29 16.0382 20.5742 15.5063 21.5211 14.5594C22.468 13.6125 22.9999 12.3282 22.9999 10.9891V5.04906ZM15.4085 8.4943L9.62289 11.3574C9.39717 11.4881 8.62493 11.3574 8.62493 11.0604V5.17973C8.62493 4.91836 9.40906 4.75204 9.63478 4.88272L15.1709 7.90029C15.4085 7.99533 15.6461 8.32798 15.4085 8.45866V8.4943Z" fill="white"/>
</svg>
