<svg width="28" height="28" viewBox="0 0 28 28" fill="none" xmlns="http://www.w3.org/2000/svg">
<g clip-path="url(#clip0_4620_238)">
<path d="M18.4579 6.281L2.88514 13.8803C2.22907 14.2005 1.81705 14.8529 1.80979 15.5828C1.8026 16.3128 2.20163 16.9733 2.85121 17.3063L7.98143 19.9369L12.5988 14.7092C12.8113 14.4686 13.1786 14.4458 13.4192 14.6583C13.6597 14.8708 13.6825 15.2381 13.47 15.4787L8.85265 20.7064L12.0967 25.4724C12.5075 26.0759 13.2121 26.3903 13.9356 26.293C14.6606 26.1954 15.256 25.7049 15.4923 25.0155L21.11 8.62344C21.3658 7.87712 21.1573 7.08907 20.566 6.56679C19.9747 6.04451 19.1669 5.93495 18.4579 6.281Z" fill="white"/>
</g>
<defs>
<clipPath id="clip0_4620_238">
<rect width="19.6445" height="19.6445" fill="white" transform="translate(0 14.8678) scale(1.00979) rotate(-48.5475)"/>
</clipPath>
</defs>
</svg>
