<svg width="103" height="106" viewBox="0 0 103 106" fill="none" xmlns="http://www.w3.org/2000/svg">
<path d="M95 -3.49691e-07C99.4183 -1.56562e-07 103 3.58172 103 8L103 89.8462C103 94.2644 99.4183 97.8462 95 97.8462L63.3225 97.8462C61.245 97.8462 59.2489 98.6544 57.7566 100.1L51.6651 106L45.5735 100.1C44.0812 98.6544 42.0851 97.8462 40.0076 97.8462L8 97.8462C3.58172 97.8462 3.50897e-06 94.2644 3.70209e-06 89.8462L7.2797e-06 8C7.47283e-06 3.58172 3.58173 -4.34571e-06 8.00001 -4.15258e-06L95 -3.49691e-07Z" fill="#FD9B79"/>
<rect x="20.5" y="17.5" width="17" height="57" rx="4.5" stroke="white" stroke-width="3"/>
<rect x="44.5" y="17.5" width="40" height="12" rx="4.5" stroke="white" stroke-width="3"/>
<path d="M84 55.5V42C84 38.6863 81.3137 36 78 36L50 36C46.6863 36 44 38.6863 44 42L44 69C44 72.3137 46.6863 75 50 75H78C81.3137 75 84 72.3137 84 69V64.7625" stroke="white" stroke-width="3"/>
</svg>
