<svg width="31" height="31" viewBox="0 0 31 31" fill="none" xmlns="http://www.w3.org/2000/svg">
<circle cx="15.5" cy="15.4998" r="15.4998" transform="rotate(0.678717 15.5 15.4998)" fill="#EDF1FF"/>
<path d="M23.0331 7.22244C22.588 7.22244 22.2258 6.86024 22.2258 6.41516C22.2258 5.97008 22.588 5.60788 23.0331 5.60788C23.4782 5.60788 23.8404 5.97008 23.8404 6.41516C23.8404 6.86024 23.4782 7.22244 23.0331 7.22244ZM23.0331 6.14607C22.8846 6.14607 22.764 6.26662 22.764 6.41516C22.764 6.5637 22.8846 6.68425 23.0331 6.68425C23.1817 6.68425 23.3022 6.5637 23.3022 6.41516C23.3022 6.26662 23.1817 6.14607 23.0331 6.14607Z" fill="#A4AFC1"/>
<path d="M19.8035 16.2372C20.1751 16.2372 20.4763 15.9361 20.4763 15.5645C20.4763 15.193 20.1751 14.8918 19.8035 14.8918C19.432 14.8918 19.1308 15.193 19.1308 15.5645C19.1308 15.9361 19.432 16.2372 19.8035 16.2372Z" fill="#F3F3F1"/>
<path d="M11.1929 16.2372C11.5645 16.2372 11.8656 15.9361 11.8656 15.5645C11.8656 15.193 11.5645 14.8918 11.1929 14.8918C10.8214 14.8918 10.5202 15.193 10.5202 15.5645C10.5202 15.9361 10.8214 16.2372 11.1929 16.2372Z" fill="#F3F3F1"/>
<path d="M15.4987 16.5065C16.1675 16.5065 16.7096 15.9644 16.7096 15.2956C16.7096 14.6268 16.1675 14.0847 15.4987 14.0847C14.8299 14.0847 14.2878 14.6268 14.2878 15.2956C14.2878 15.9644 14.8299 16.5065 15.4987 16.5065Z" fill="#F3F3F1"/>
<path d="M18.0545 20.4084V19.1975C18.0545 18.6028 17.5728 18.1211 16.9781 18.1211H14.0181C13.4234 18.1211 12.9417 18.6028 12.9417 19.1975V20.4084H18.0545Z" fill="#F3F3F1"/>
<path d="M12.9424 19.3319V18.6591C12.9424 18.0645 12.4608 17.5828 11.8661 17.5828H10.5206C9.9259 17.5828 9.44422 18.0645 9.44422 18.6591V19.3319H12.9424Z" fill="#F3F3F1"/>
<path d="M21.5536 19.3319V18.6591C21.5536 18.0645 21.0719 17.5828 20.4772 17.5828H19.1317C18.537 17.5828 18.0553 18.0645 18.0553 18.6591V19.3319H21.5536Z" fill="#F3F3F1"/>
<path d="M18.8621 13.5464C19.4541 13.5464 19.9385 13.0621 19.9385 12.4701V7.89546H11.0584V12.4701C11.0584 13.0621 11.5428 13.5464 12.1348 13.5464H18.8621Z" fill="#2F4BDF"/>
<path d="M20.3417 15.5645C20.3417 15.4623 20.3681 15.3681 20.409 15.2814C20.3014 15.0527 20.0726 14.8918 19.8035 14.8918C19.4322 14.8918 19.1308 15.1932 19.1308 15.5645C19.1308 15.9359 19.4322 16.2372 19.8035 16.2372C20.0726 16.2372 20.3014 16.0763 20.409 15.8476C20.3681 15.7609 20.3417 15.6668 20.3417 15.5645Z" fill="#D5DBE1"/>
<path d="M11.7311 15.5645C11.7311 15.4623 11.7575 15.3681 11.7984 15.2814C11.6907 15.0527 11.462 14.8918 11.1929 14.8918C10.8216 14.8918 10.5202 15.1932 10.5202 15.5645C10.5202 15.9359 10.8216 16.2372 11.1929 16.2372C11.462 16.2372 11.6907 16.0763 11.7984 15.8476C11.7575 15.7609 11.7311 15.6668 11.7311 15.5645Z" fill="#D5DBE1"/>
<path d="M15.4987 15.2956C15.4987 14.8484 15.7436 14.4625 16.1041 14.2526C15.9255 14.1487 15.7204 14.0847 15.4987 14.0847C14.8297 14.0847 14.2878 14.6266 14.2878 15.2956C14.2878 15.9646 14.8297 16.5065 15.4987 16.5065C15.7204 16.5065 15.9255 16.4425 16.1041 16.3386C15.7436 16.1287 15.4987 15.7428 15.4987 15.2956Z" fill="#D5DBE1"/>
<path d="M15.229 18.1211H14.0181C13.4234 18.1211 12.9417 18.6028 12.9417 19.1975V20.4084H14.1526V19.1975C14.1526 18.6028 14.6343 18.1211 15.229 18.1211Z" fill="#D5DBE1"/>
<path d="M11.7315 17.5828H10.5206C9.9259 17.5828 9.44422 18.0645 9.44422 18.6591V19.3319H10.6551V18.6591C10.6551 18.0645 11.1368 17.5828 11.7315 17.5828Z" fill="#D5DBE1"/>
<path d="M20.3426 17.5828H19.1317C18.537 17.5828 18.0553 18.0645 18.0553 18.6591V19.3319H19.2663V18.6591C19.2663 18.0645 19.7479 17.5828 20.3426 17.5828Z" fill="#D5DBE1"/>
<path d="M12.2693 12.4701V7.89546H11.0584V12.4701C11.0584 13.0621 11.5428 13.5464 12.1348 13.5464H13.3457C12.7537 13.5464 12.2693 13.0621 12.2693 12.4701Z" fill="#384AEA"/>
<path d="M9.98195 7.49167H21.0148V8.29895H9.98195V7.49167Z" fill="black"/>
<path d="M18.8619 13.9499H17.6509V13.1426H18.8619C19.2327 13.1426 19.5346 12.8407 19.5346 12.4699V8.29895H11.4618V12.4699C11.4618 12.8407 11.7637 13.1426 12.1345 13.1426H13.3454V13.9499H12.1345C11.3181 13.9499 10.6545 13.2863 10.6545 12.4699V7.89531C10.6545 7.6725 10.8353 7.49167 11.0581 7.49167H19.9382C20.161 7.49167 20.3419 7.6725 20.3419 7.89531V12.4699C20.3419 13.2863 19.6783 13.9499 18.8619 13.9499Z" fill="black"/>
<path d="M13.7654 12.2172L13.1949 11.6467L14.5404 10.3013C14.669 10.1721 14.8682 10.1457 15.0259 10.2362L15.711 10.628L17.2427 9.21414L17.7905 9.80776L16.0414 11.4223C15.9123 11.5418 15.7207 11.5639 15.5673 11.4761L14.8935 11.0908L13.7654 12.2172Z" fill="#B1BFF4"/>
<path d="M17.9204 11.2591H17.1131V9.91363H15.7676V9.10634H17.5167C17.7396 9.10634 17.9204 9.28717 17.9204 9.50998V11.2591Z" fill="#B1BFF4"/>
<path d="M19.8037 16.6409C19.2101 16.6409 18.7274 16.1581 18.7274 15.5645C18.7274 14.9709 19.2101 14.4881 19.8037 14.4881C20.3974 14.4881 20.8801 14.9709 20.8801 15.5645C20.8801 16.1581 20.3974 16.6409 19.8037 16.6409ZM19.8037 15.2954C19.6552 15.2954 19.5347 15.4159 19.5347 15.5645C19.5347 15.713 19.6552 15.8336 19.8037 15.8336C19.9523 15.8336 20.0728 15.713 20.0728 15.5645C20.0728 15.4159 19.9523 15.2954 19.8037 15.2954Z" fill="black"/>
<path d="M21.9565 19.3321H21.1492V18.6594C21.1492 18.2886 20.8473 17.9866 20.4765 17.9866H18.7274V17.1794H20.4765C21.2929 17.1794 21.9565 17.8429 21.9565 18.6594V19.3321Z" fill="black"/>
<path d="M11.1931 16.6409C10.5995 16.6409 10.1168 16.1581 10.1168 15.5645C10.1168 14.9709 10.5995 14.4881 11.1931 14.4881C11.7868 14.4881 12.2695 14.9709 12.2695 15.5645C12.2695 16.1581 11.7868 16.6409 11.1931 16.6409ZM11.1931 15.2954C11.0446 15.2954 10.924 15.4159 10.924 15.5645C10.924 15.713 11.0446 15.8336 11.1931 15.8336C11.3417 15.8336 11.4622 15.713 11.4622 15.5645C11.4622 15.4159 11.3417 15.2954 11.1931 15.2954Z" fill="black"/>
<path d="M9.84759 19.3321H9.0403V18.6594C9.0403 17.8429 9.70389 17.1794 10.5203 17.1794H12.2694V17.9866H10.5203C10.1495 17.9866 9.84759 18.2886 9.84759 18.6594V19.3321Z" fill="black"/>
<path d="M15.4979 16.91C14.6077 16.91 13.8833 16.1856 13.8833 15.2955C13.8833 14.4053 14.6077 13.6809 15.4979 13.6809C16.3881 13.6809 17.1125 14.4053 17.1125 15.2955C17.1125 16.1856 16.3881 16.91 15.4979 16.91ZM15.4979 14.4882C15.0528 14.4882 14.6906 14.8504 14.6906 15.2955C14.6906 15.7405 15.0528 16.1027 15.4979 16.1027C15.943 16.1027 16.3052 15.7405 16.3052 15.2955C16.3052 14.8504 15.943 14.4882 15.4979 14.4882Z" fill="black"/>
<path d="M18.4583 20.408H17.6511V19.1971C17.6511 18.8263 17.3491 18.5244 16.9783 18.5244H14.0183C13.6475 18.5244 13.3456 18.8263 13.3456 19.1971V20.408H12.5383V19.1971C12.5383 18.3807 13.2019 17.7171 14.0183 17.7171H16.9783C17.7948 17.7171 18.4583 18.3807 18.4583 19.1971V20.408Z" fill="black"/>
<path d="M6.8874 19.6009H24.1094V20.4081H6.8874V19.6009Z" fill="black"/>
</svg>
