<svg width="114" height="250" viewBox="0 0 114 250" fill="none" xmlns="http://www.w3.org/2000/svg">
<g filter="url(#filter0_d_4620_509)">
<path d="M0 165.05C0 154.476 8.57176 145.905 19.1456 145.905H86.0852C96.659 145.905 105.231 154.476 105.231 165.05V185.684C105.231 187.956 106.151 190.13 107.782 191.711C111.184 195.009 111.184 200.467 107.782 203.765C106.151 205.346 105.231 207.52 105.231 209.791V230.759C105.231 241.333 96.659 249.905 86.0852 249.905H19.1456C8.57177 249.905 0 241.333 0 230.759V165.05Z" fill="white"/>
</g>
<path d="M80.8444 28.7543C80.322 23.8188 77.975 19.1659 74.2353 15.6525C71.0393 12.6502 67.1276 10.7208 63.0115 9.86297V7.15089C64.6927 6.75798 65.9423 5.3284 65.9423 3.62919C65.9423 1.62801 64.2093 0 62.0792 0H53.8985C51.7683 0 50.0353 1.62801 50.0353 3.62919C50.0353 5.32829 51.2849 6.75787 52.966 7.15089V9.87055C48.8625 10.7321 44.9637 12.6587 41.7769 15.6526C41.0795 16.3078 40.4364 16.9951 39.8477 17.7094C39.8192 17.7074 39.7907 17.7053 39.7616 17.7053H31.6649C31.0374 17.7053 30.5287 18.1832 30.5287 18.7727C30.5287 19.3623 31.0374 19.8401 31.6649 19.8401H38.3017C37.4686 21.1504 36.7969 22.5264 36.2856 23.9428H23.9197C23.2922 23.9428 22.7834 24.4207 22.7834 25.0103C22.7834 25.5998 23.2922 26.0777 23.9197 26.0777H35.6435C35.3161 27.428 35.1281 28.8023 35.0796 30.1805H30.0552C29.4278 30.1805 28.919 30.6583 28.919 31.2479C28.919 31.8374 29.4278 32.3153 30.0552 32.3153H35.1159C35.2118 33.6969 35.4482 35.0713 35.8253 36.4181H28.4645C27.8371 36.4181 27.3283 36.896 27.3283 37.4855C27.3283 38.075 27.8371 38.5529 28.4645 38.5529H36.5505C37.6651 41.3229 39.407 43.9192 41.7769 46.1456C45.5203 49.6623 50.4782 51.8678 55.7373 52.3559C56.4879 52.4255 57.239 52.46 57.9892 52.46C62.4229 52.46 66.8002 51.2545 70.5145 48.9822C71.0403 48.6605 71.1891 47.9993 70.8466 47.5053C70.5042 47.0113 69.8003 46.8715 69.2744 47.1933C61.1441 52.1671 50.2554 51.0916 43.3837 44.6361C35.321 37.0615 35.321 24.7369 43.3837 17.1622C51.4464 9.58779 64.5654 9.58779 72.6283 17.1622C79.4909 23.6094 80.6419 33.8299 75.365 41.4643C75.0232 41.9587 75.1729 42.6198 75.699 42.9408C76.2256 43.2619 76.9291 43.1213 77.2708 42.6269C80.0901 38.5478 81.3593 33.6212 80.8444 28.7543ZM52.3078 3.6293C52.3078 2.80526 53.0213 2.13493 53.8985 2.13493H62.0792C62.9563 2.13493 63.6699 2.80526 63.6699 3.6293C63.6699 4.45334 62.9563 5.12367 62.0792 5.12367H61.8753H54.1022H53.8985C53.0213 5.12367 52.3078 4.45323 52.3078 3.6293ZM55.2384 9.50357V7.25849H60.7391V9.49973C58.9125 9.29564 57.0646 9.29692 55.2384 9.50357Z" fill="#2F4BDF"/>
<path d="M73.4323 44.323C73.1324 44.323 72.8404 44.4372 72.6292 44.6357C72.4167 44.8343 72.2961 45.1097 72.2961 45.3904C72.2961 45.6711 72.4167 45.9465 72.6292 46.145C72.8404 46.3446 73.1325 46.4578 73.4323 46.4578C73.7311 46.4578 74.0231 46.3446 74.2356 46.145C74.4469 45.9465 74.5685 45.6711 74.5685 45.3904C74.5685 45.1097 74.447 44.8343 74.2356 44.6357C74.0231 44.4372 73.731 44.323 73.4323 44.323Z" fill="#2F4BDF"/>
<path d="M58.0063 14.3406C48.2874 14.3406 40.3804 21.7686 40.3804 30.899C40.3804 40.0295 48.2874 47.4575 58.0063 47.4575C67.7252 47.4575 75.6322 40.0295 75.6322 30.899C75.6322 21.7686 67.7252 14.3406 58.0063 14.3406ZM58.0063 45.3227C49.5403 45.3227 42.6528 38.8522 42.6528 30.899C42.6528 22.9459 49.5403 16.4754 58.0063 16.4754C66.4723 16.4754 73.3598 22.9459 73.3598 30.899C73.3598 38.8522 66.4723 45.3227 58.0063 45.3227Z" fill="#2F4BDF"/>
<path d="M65.1933 22.638L59.5657 27.9247C59.0951 27.7061 58.5657 27.5826 58.0062 27.5826C57.4465 27.5826 56.9172 27.7061 56.4466 27.9247L53.928 25.5586C53.4842 25.1418 52.765 25.1418 52.321 25.5586C51.8774 25.9754 51.8774 26.6513 52.321 27.0681L54.8397 29.4342C54.6069 29.8763 54.4755 30.3736 54.4755 30.8993C54.4755 32.7281 56.0593 34.2161 58.0062 34.2161C59.9531 34.2161 61.5368 32.7281 61.5368 30.8993C61.5368 30.3736 61.4054 29.8763 61.1727 29.4342L66.6351 24.3026L66.8002 24.1475C67.2439 23.7307 67.2439 23.0549 66.8002 22.638C66.3565 22.2212 65.6373 22.2212 65.1933 22.638ZM58.0062 32.0814C57.3124 32.0814 56.7479 31.5511 56.7479 30.8994C56.7479 30.2476 57.3124 29.7174 58.0062 29.7174C58.6999 29.7174 59.2644 30.2476 59.2644 30.8994C59.2644 31.5511 58.6999 32.0814 58.0062 32.0814Z" fill="#2F4BDF"/>
<path d="M70.1542 29.8445H69.1015C68.4741 29.8445 67.9653 30.3224 67.9653 30.912C67.9653 31.5016 68.4741 31.9795 69.1015 31.9795H70.1542C70.7816 31.9795 71.2904 31.5016 71.2904 30.912C71.2904 30.3224 70.7816 29.8445 70.1542 29.8445Z" fill="#2F4BDF"/>
<path d="M46.9104 29.8186H45.8579C45.2305 29.8186 44.7217 30.2965 44.7217 30.8861C44.7217 31.4757 45.2305 31.9536 45.8579 31.9536H46.9104C47.5378 31.9536 48.0466 31.4757 48.0466 30.8861C48.0466 30.2965 47.5378 29.8186 46.9104 29.8186Z" fill="#2F4BDF"/>
<path d="M58.02 21.5425C58.6474 21.5425 59.1561 21.0646 59.1561 20.475V19.4861C59.1561 18.8966 58.6474 18.4187 58.02 18.4187C57.3926 18.4187 56.8838 18.8966 56.8838 19.4861V20.475C56.8838 21.0646 57.3926 21.5425 58.02 21.5425Z" fill="#2F4BDF"/>
<path d="M57.9921 40.2556C57.3647 40.2556 56.856 40.7335 56.856 41.3231V42.3119C56.856 42.9015 57.3647 43.3794 57.9921 43.3794C58.6195 43.3794 59.1283 42.9015 59.1283 42.3119V41.3231C59.1283 40.7335 58.6195 40.2556 57.9921 40.2556Z" fill="#2F4BDF"/>
<path d="M23.9196 36.4177C23.6208 36.4177 23.3277 36.5319 23.1163 36.7305C22.905 36.9291 22.7834 37.2045 22.7834 37.4852C22.7834 37.7671 22.9049 38.0414 23.1163 38.24C23.3278 38.4385 23.6208 38.5527 23.9196 38.5527C24.2184 38.5527 24.5116 38.4385 24.7228 38.24C24.9341 38.0414 25.0558 37.766 25.0558 37.4852C25.0558 37.2045 24.9342 36.9291 24.7228 36.7305C24.5116 36.5319 24.2184 36.4177 23.9196 36.4177Z" fill="#2F4BDF"/>
<defs>
<filter id="filter0_d_4620_509" x="-145.862" y="89.8039" width="402.057" height="395.723" filterUnits="userSpaceOnUse" color-interpolation-filters="sRGB">
<feFlood flood-opacity="0" result="BackgroundImageFix"/>
<feColorMatrix in="SourceAlpha" type="matrix" values="0 0 0 0 0 0 0 0 0 0 0 0 0 0 0 0 0 0 127 0" result="hardAlpha"/>
<feOffset dy="89.761"/>
<feGaussianBlur stdDeviation="72.9308"/>
<feColorMatrix type="matrix" values="0 0 0 0 0 0 0 0 0 0 0 0 0 0 0 0 0 0 0.05 0"/>
<feBlend mode="normal" in2="BackgroundImageFix" result="effect1_dropShadow_4620_509"/>
<feBlend mode="normal" in="SourceGraphic" in2="effect1_dropShadow_4620_509" result="shape"/>
</filter>
</defs>
</svg>
