<svg width="31" height="31" viewBox="0 0 31 31" fill="none" xmlns="http://www.w3.org/2000/svg">
<circle cx="15.5" cy="15.5" r="15.5" fill="#3ADAD9" fill-opacity="0.15"/>
<path d="M12.2544 8.13877L13.0156 7.37765L13.3961 7.75821L12.635 8.51934L12.2544 8.13877Z" fill="#A4AFC1"/>
<path d="M10.0668 10.326L10.8279 9.5649L11.2085 9.94546L10.4474 10.7066L10.0668 10.326Z" fill="#A4AFC1"/>
<path d="M10.1625 7.75864L10.543 7.37808L11.3042 8.1392L10.9236 8.51976L10.1625 7.75864Z" fill="#A4AFC1"/>
<path d="M13.8857 12.6745V17.1146L10.7518 20.2593C11.5547 21.0595 12.6623 21.5547 13.8857 21.5547C16.3377 21.5547 18.3258 19.5666 18.3258 17.1146C18.3258 14.6626 16.3377 12.6745 13.8857 12.6745Z" fill="#F3F3F1"/>
<path d="M10.7478 20.263L13.8854 17.1146V12.6745C11.4313 12.6745 9.44533 14.6604 9.44533 17.1146C9.44533 18.3417 9.94585 19.4557 10.7478 20.263Z" fill="#3ADAD9"/>
<path d="M21.5552 9.98377V12.4056C21.5552 12.7027 21.314 12.9438 21.017 12.9438H18.9987L17.5187 14.5584V12.9438H16.4423C16.1452 12.9438 15.9041 12.7027 15.9041 12.4056V9.98377C15.9041 9.68668 16.1452 9.44557 16.4423 9.44557H21.017C21.314 9.44557 21.5552 9.68668 21.5552 9.98377Z" fill="#3ADAD9"/>
<path d="M11.9627 20.2593L15.0966 17.1146V12.8462C14.7113 12.7369 14.306 12.6745 13.8857 12.6745V17.1146L10.7518 20.2593C11.5547 21.0595 12.6623 21.5547 13.8857 21.5547C14.0918 21.5547 14.2925 21.5358 14.4911 21.5084C13.5105 21.3744 12.6306 20.925 11.9627 20.2593Z" fill="#D5DBE1"/>
<path d="M10.6563 17.1146C10.6563 15.0807 12.0217 13.3725 13.8854 12.8456V12.6745C11.4313 12.6745 9.44533 14.6604 9.44533 17.1146C9.44533 18.3417 9.94585 19.4557 10.7478 20.263L11.4124 19.5957C10.9361 18.8858 10.6563 18.0317 10.6563 17.1146Z" fill="#384AEA"/>
<path d="M18.7296 13.2372V12.9438H17.6532C17.3562 12.9438 17.115 12.7027 17.115 12.4056V9.98377C17.115 9.68668 17.3562 9.44557 17.6532 9.44557H16.4423C16.1452 9.44557 15.9041 9.68668 15.9041 9.98377V12.4056C15.9041 12.7027 16.1452 12.9438 16.4423 12.9438H17.5187V14.5584L18.7296 13.2372Z" fill="#384AEA"/>
<path d="M13.8862 21.9585C11.2151 21.9585 9.04239 19.7858 9.04239 17.1147C9.04239 14.3468 11.4008 12.1095 14.1709 12.2769L14.574 12.3011L14.5261 13.1068L14.1235 13.0831C14.0422 13.0777 13.9604 13.0793 13.8862 13.0783C11.6602 13.0783 9.84969 14.8887 9.84969 17.1147C9.84969 19.3407 11.6602 21.1512 13.8862 21.1512C16.1121 21.1512 17.9226 19.3407 17.9226 17.1147C17.9226 16.7843 17.8812 16.456 17.7994 16.1395L17.6987 15.7482L18.4802 15.547L18.5814 15.9377C18.6799 16.3198 18.7299 16.7165 18.7299 17.1147C18.7299 19.7858 16.5572 21.9585 13.8862 21.9585Z" fill="#3ADAD9"/>
<path d="M11.0393 20.5423L10.4678 19.9724L13.4827 16.9477V12.6745H14.29V17.1146C14.29 17.2211 14.2475 17.3239 14.1722 17.3993L11.0393 20.5423Z" fill="#3ADAD9"/>
<path d="M17.5179 14.9619C17.4684 14.9619 17.4189 14.9528 17.3721 14.9345C17.216 14.8742 17.1143 14.7251 17.1143 14.5583V13.3473H16.4415C15.9222 13.3473 15.4997 12.9249 15.4997 12.4055V9.98362C15.4997 9.46426 15.9222 9.04178 16.4415 9.04178H21.0162C21.5355 9.04178 21.958 9.46426 21.958 9.98362V12.4055C21.958 12.9249 21.5355 13.3473 21.0162 13.3473H19.1756L17.8155 14.8311C17.7375 14.9162 17.6288 14.9619 17.5179 14.9619ZM16.4415 9.84907C16.3673 9.84907 16.307 9.90935 16.307 9.98362V12.4055C16.307 12.4798 16.3673 12.54 16.4415 12.54H17.5179C17.7407 12.54 17.9216 12.7209 17.9216 12.9437V13.5206L18.7003 12.6708C18.7768 12.5874 18.8849 12.54 18.998 12.54H21.0162C21.0905 12.54 21.1507 12.4798 21.1507 12.4055V9.98362C21.1507 9.90935 21.0905 9.84907 21.0162 9.84907H16.4415Z" fill="#3ADAD9"/>
<path d="M17.384 11.5989C17.3301 11.5989 17.2763 11.5881 17.2278 11.5665C17.1793 11.545 17.1363 11.5181 17.0986 11.4804C17.0232 11.405 16.9801 11.3027 16.9801 11.1949C16.9801 11.0872 17.0232 10.9849 17.0986 10.9095C17.1363 10.8718 17.1793 10.8395 17.2278 10.8233C17.3301 10.7803 17.4378 10.7803 17.5402 10.8233C17.5886 10.8395 17.6317 10.8718 17.6694 10.9095C17.7448 10.9849 17.7879 11.0872 17.7879 11.1949C17.7879 11.3027 17.7448 11.405 17.6694 11.4804C17.6317 11.5181 17.5886 11.545 17.5402 11.5665C17.4863 11.5881 17.4378 11.5989 17.384 11.5989Z" fill="#3ADAD9"/>
<path d="M18.7291 11.5988C18.6214 11.5988 18.519 11.5557 18.4436 11.4803C18.4059 11.4426 18.3736 11.3995 18.3575 11.3511C18.3359 11.2972 18.3252 11.2487 18.3252 11.1949C18.3252 11.0872 18.3682 10.9849 18.4436 10.9095C18.4813 10.8718 18.5244 10.8448 18.5729 10.8233C18.7237 10.7587 18.9014 10.7964 19.0145 10.9095C19.0899 10.9849 19.133 11.0872 19.133 11.1949C19.133 11.2487 19.1222 11.3026 19.1007 11.3511C19.0791 11.3995 19.0522 11.4426 19.0145 11.4803C18.9768 11.518 18.9337 11.5449 18.8853 11.5665C18.8368 11.588 18.7829 11.5988 18.7291 11.5988Z" fill="#3ADAD9"/>
<path d="M20.0751 11.5987C20.0213 11.5987 19.9728 11.5879 19.919 11.5664C19.8705 11.5502 19.8274 11.5179 19.7897 11.4802C19.752 11.4425 19.7251 11.3994 19.7035 11.3509C19.682 11.3025 19.6712 11.2486 19.6712 11.1948C19.6712 11.087 19.7143 10.9847 19.7897 10.9093C19.9405 10.7585 20.2098 10.7585 20.3606 10.9093C20.3983 10.947 20.4306 10.9901 20.4467 11.0386C20.4683 11.087 20.4791 11.1409 20.4791 11.1948C20.4791 11.3025 20.436 11.4048 20.3606 11.4802C20.2852 11.5556 20.1829 11.5987 20.0751 11.5987Z" fill="#3ADAD9"/>
</svg>
