<svg width="154" height="186" viewBox="0 0 154 186" fill="none" xmlns="http://www.w3.org/2000/svg">
<g filter="url(#filter0_d_4636_487)">
<path d="M55.8692 63.2193C55.8692 59.1693 59.1525 55.886 63.2026 55.886H88.8425C92.8926 55.886 96.1758 59.1693 96.1758 63.2194V71.1229C96.1758 71.9929 96.5284 72.8258 97.1531 73.4313C98.4562 74.6944 98.4562 76.7851 97.1531 78.0482C96.5284 78.6537 96.1758 79.4866 96.1758 80.3566V88.3878C96.1758 92.4379 92.8926 95.7212 88.8425 95.7212H63.2026C59.1525 95.7212 55.8692 92.4379 55.8692 88.3878V63.2193Z" fill="white"/>
</g>
<path d="M86.8362 11.0138C86.6362 9.12332 85.7372 7.34111 84.3048 5.99538C83.0806 4.8454 81.5823 4.10641 80.0057 3.77781V2.73901C80.6497 2.58851 81.1283 2.04094 81.1283 1.39009C81.1283 0.623578 80.4645 0 79.6486 0H76.5151C75.6992 0 75.0355 0.623578 75.0355 1.39009C75.0355 2.0409 75.5141 2.58847 76.158 2.73901V3.78072C74.5862 4.1107 73.0929 4.84867 71.8722 5.99542C71.6051 6.24637 71.3588 6.50963 71.1333 6.78323C71.1224 6.78245 71.1115 6.78168 71.1003 6.78168H67.999C67.7587 6.78168 67.5638 6.96472 67.5638 7.19053C67.5638 7.41633 67.7587 7.59938 67.999 7.59938H70.5411C70.222 8.10124 69.9647 8.62829 69.7689 9.17083H65.0324C64.792 9.17083 64.5972 9.35388 64.5972 9.57968C64.5972 9.80549 64.792 9.98853 65.0324 9.98853H69.523C69.3975 10.5058 69.3256 11.0322 69.307 11.56H67.3825C67.1421 11.56 66.9473 11.7431 66.9473 11.9689C66.9473 12.1947 67.1421 12.3777 67.3825 12.3777H69.3209C69.3576 12.9069 69.4481 13.4334 69.5926 13.9492H66.7732C66.5329 13.9492 66.338 14.1323 66.338 14.3581C66.338 14.5839 66.5329 14.7669 66.7732 14.7669H69.8703C70.2973 15.8279 70.9645 16.8224 71.8722 17.6752C73.306 19.0222 75.2051 19.8669 77.2195 20.0539C77.507 20.0805 77.7947 20.0938 78.082 20.0938C79.7803 20.0938 81.4569 19.632 82.8796 18.7617C83.081 18.6385 83.138 18.3852 83.0068 18.196C82.8756 18.0067 82.606 17.9532 82.4046 18.0764C79.2904 19.9816 75.1198 19.5696 72.4877 17.097C69.3994 14.1957 69.3994 9.47498 72.4877 6.57365C75.5759 3.67241 80.6009 3.67241 83.6892 6.57365C86.3178 9.04311 86.7587 12.9579 84.7375 15.8821C84.6066 16.0714 84.6639 16.3247 84.8654 16.4476C85.0671 16.5706 85.3366 16.5168 85.4674 16.3274C86.5474 14.765 87.0335 12.8779 86.8362 11.0138ZM75.9059 1.39013C75.9059 1.0745 76.1792 0.817741 76.5151 0.817741H79.6486C79.9846 0.817741 80.2579 1.0745 80.2579 1.39013C80.2579 1.70576 79.9846 1.96252 79.6486 1.96252H79.5705H76.5932H76.5151C76.1792 1.96252 75.9059 1.70572 75.9059 1.39013ZM77.0284 3.64015V2.78022H79.1353V3.63868C78.4357 3.56051 77.7279 3.561 77.0284 3.64015Z" fill="#2F4BDF"/>
<path d="M83.9964 16.9773C83.8814 16.9773 83.7695 17.0211 83.6885 17.0972C83.6071 17.1733 83.5609 17.2788 83.5609 17.3864C83.5609 17.494 83.6071 17.5996 83.6885 17.6757C83.7695 17.7522 83.8814 17.7955 83.9964 17.7955C84.1109 17.7955 84.2228 17.7522 84.3042 17.6757C84.3852 17.5996 84.4318 17.494 84.4318 17.3864C84.4318 17.2788 84.3853 17.1733 84.3042 17.0972C84.2228 17.0211 84.1108 16.9773 83.9964 16.9773Z" fill="#2F4BDF"/>
<path d="M78.0874 5.49291C74.3647 5.49291 71.3361 8.33808 71.3361 11.8353C71.3361 15.3325 74.3647 18.1777 78.0874 18.1777C81.81 18.1777 84.8386 15.3325 84.8386 11.8353C84.8386 8.33808 81.81 5.49291 78.0874 5.49291ZM78.0874 17.36C74.8446 17.36 72.2065 14.8816 72.2065 11.8353C72.2065 8.78899 74.8446 6.31061 78.0874 6.31061C81.3301 6.31061 83.9682 8.78899 83.9682 11.8353C83.9682 14.8816 81.3301 17.36 78.0874 17.36Z" fill="#2F4BDF"/>
<path d="M80.8403 8.67093L78.6848 10.6959C78.5045 10.6121 78.3017 10.5648 78.0874 10.5648C77.873 10.5648 77.6703 10.6121 77.49 10.6959L76.5253 9.78959C76.3553 9.62994 76.0799 9.62994 75.9098 9.78959C75.7399 9.94925 75.7399 10.2081 75.9098 10.3678L76.8745 11.2741C76.7854 11.4434 76.7351 11.6339 76.7351 11.8352C76.7351 12.5357 77.3417 13.1057 78.0874 13.1057C78.8331 13.1057 79.4397 12.5357 79.4397 11.8352C79.4397 11.6339 79.3894 11.4434 79.3003 11.2741L81.3925 9.30851L81.4558 9.24911C81.6257 9.08946 81.6257 8.83058 81.4558 8.67093C81.2858 8.51127 81.0103 8.51127 80.8403 8.67093ZM78.0874 12.288C77.8217 12.288 77.6055 12.0849 77.6055 11.8353C77.6055 11.5856 77.8217 11.3825 78.0874 11.3825C78.3531 11.3825 78.5693 11.5856 78.5693 11.8353C78.5693 12.0849 78.3531 12.288 78.0874 12.288Z" fill="#2F4BDF"/>
<path d="M82.7405 11.4316H82.3373C82.097 11.4316 81.9021 11.6147 81.9021 11.8405C81.9021 12.0663 82.097 12.2494 82.3373 12.2494H82.7405C82.9808 12.2494 83.1757 12.0663 83.1757 11.8405C83.1757 11.6147 82.9808 11.4316 82.7405 11.4316Z" fill="#2F4BDF"/>
<path d="M73.8372 11.4212H73.434C73.1937 11.4212 72.9988 11.6043 72.9988 11.8301C72.9988 12.0559 73.1937 12.239 73.434 12.239H73.8372C74.0775 12.239 74.2724 12.0559 74.2724 11.8301C74.2724 11.6043 74.0775 11.4212 73.8372 11.4212Z" fill="#2F4BDF"/>
<path d="M78.0919 8.25144C78.3322 8.25144 78.5271 8.06839 78.5271 7.84257V7.4638C78.5271 7.23798 78.3322 7.05493 78.0919 7.05493C77.8516 7.05493 77.6567 7.23798 77.6567 7.4638V7.84257C77.6567 8.06839 77.8516 8.25144 78.0919 8.25144Z" fill="#2F4BDF"/>
<path d="M78.0816 15.4191C77.8413 15.4191 77.6464 15.6022 77.6464 15.828V16.2067C77.6464 16.4326 77.8413 16.6156 78.0816 16.6156C78.3219 16.6156 78.5168 16.4326 78.5168 16.2067V15.828C78.5168 15.6022 78.3219 15.4191 78.0816 15.4191Z" fill="#2F4BDF"/>
<path d="M65.0312 13.9493C64.9166 13.9493 64.8043 13.9931 64.7233 14.0692C64.6423 14.1453 64.5957 14.2509 64.5957 14.3585C64.5957 14.4665 64.6422 14.5716 64.7233 14.6477C64.8043 14.7238 64.9166 14.7676 65.0312 14.7676C65.1457 14.7676 65.258 14.7238 65.339 14.6477C65.42 14.5716 65.4666 14.4661 65.4666 14.3585C65.4666 14.2509 65.42 14.1453 65.339 14.0692C65.258 13.9931 65.1457 13.9493 65.0312 13.9493Z" fill="#2F4BDF"/>
<defs>
<filter id="filter0_d_4636_487" x="-0.000195191" y="34.3978" width="154" height="151.574" filterUnits="userSpaceOnUse" color-interpolation-filters="sRGB">
<feFlood flood-opacity="0" result="BackgroundImageFix"/>
<feColorMatrix in="SourceAlpha" type="matrix" values="0 0 0 0 0 0 0 0 0 0 0 0 0 0 0 0 0 0 127 0" result="hardAlpha"/>
<feOffset dy="34.2682"/>
<feGaussianBlur stdDeviation="27.8429"/>
<feColorMatrix type="matrix" values="0 0 0 0 0 0 0 0 0 0 0 0 0 0 0 0 0 0 0.05 0"/>
<feBlend mode="normal" in2="BackgroundImageFix" result="effect1_dropShadow_4636_487"/>
<feBlend mode="normal" in="SourceGraphic" in2="effect1_dropShadow_4636_487" result="shape"/>
</filter>
</defs>
</svg>
