<svg width="42" height="42" viewBox="0 0 42 42" fill="none" xmlns="http://www.w3.org/2000/svg">
<path d="M42 20.9921C41.9984 16.979 40.8471 13.0504 38.6822 9.67137C36.5173 6.29231 33.4296 3.60432 29.7845 1.92561C26.1394 0.246905 22.0896 -0.352213 18.1146 0.199185C14.1395 0.750582 10.4057 2.4294 7.35521 5.0369C4.30468 7.6444 2.06521 11.0714 0.901822 14.9121C-0.261566 18.7529 -0.30014 22.8465 0.790748 26.7085C1.88164 30.5705 4.05629 34.039 7.0572 36.7034C10.0581 39.3679 13.7596 41.1167 17.7235 41.7428V27.0701H12.4172V20.9921H17.7592V16.3624C17.7592 11.1035 20.8931 8.19507 25.6891 8.19507C27.28 8.21552 28.8672 8.3544 30.4375 8.61056V13.7745H27.7903C27.3334 13.7021 26.8661 13.735 26.4239 13.8706C25.9817 14.0062 25.5763 14.2409 25.2386 14.5569C24.9009 14.8729 24.6397 15.2618 24.475 15.694C24.3103 16.1262 24.2464 16.5903 24.2883 17.0509V20.9921H30.117L29.1911 27.0701H24.2883V41.7428C29.2268 40.9574 33.7234 38.4364 36.9699 34.6329C40.2163 30.8294 41.9999 25.9928 42 20.9921Z" fill="#373C59"/>
<path d="M29.1792 27.0696L30.1051 20.9916H24.2883V17.0503C24.2487 16.5966 24.3116 16.1398 24.4723 15.7136C24.633 15.2874 24.8875 14.9029 25.2169 14.5883C25.5462 14.2737 25.9421 14.0372 26.3752 13.8963C26.8083 13.7553 27.2676 13.7135 27.719 13.7739H30.3663V8.60999C28.796 8.35383 27.2088 8.21495 25.6178 8.1945C20.8694 8.1945 17.6879 11.1029 17.6879 16.3618V20.9916H12.4172V27.0696H17.7592V41.7422C19.9308 42.0747 22.1404 42.0747 24.312 41.7422V27.0696H29.1792Z" fill="white"/>
</svg>
