<svg width="40" height="41" viewBox="0 0 40 41" fill="none" xmlns="http://www.w3.org/2000/svg">
<path d="M36.7452 -1.35258e-07C38.4542 -6.05572e-08 39.8395 1.38539 39.8395 3.09434L39.8395 34.7519C39.8395 36.4608 38.4542 37.8462 36.7452 37.8462L24.4926 37.8462C23.689 37.8462 22.9169 38.1588 22.3397 38.7179L19.9835 41.0001L17.6274 38.7179C17.0502 38.1588 16.2781 37.8462 15.4745 37.8462L3.09421 37.8462C1.38525 37.8462 -0.000136865 36.4608 -0.00013679 34.7519L-0.000135406 3.09434C-0.000135331 1.38538 1.38525 -1.68089e-06 3.09421 -1.60619e-06L36.7452 -1.35258e-07Z" fill="#FD9B79"/>
<rect x="7.92149" y="6.76265" width="6.59055" height="22.0623" rx="1.71797" stroke="white" stroke-width="1.14531"/>
<rect x="17.2046" y="6.76092" width="15.4868" height="4.65658" rx="1.71797" stroke="white" stroke-width="1.14531"/>
<path d="M32.4901 21.4668L32.4901 16.2451C32.4901 14.9634 31.451 13.9243 30.1693 13.9243L19.3391 13.9243C18.0574 13.9243 17.0183 14.9634 17.0183 16.2451L17.0183 26.6885C17.0183 27.9702 18.0574 29.0093 19.3391 29.0093H30.1693C31.451 29.0093 32.4901 27.9702 32.4901 26.6885V25.0495" stroke="white" stroke-width="1.14531"/>
</svg>
