<svg width="31" height="78" viewBox="0 0 31 78" fill="none" xmlns="http://www.w3.org/2000/svg">
<circle cx="15.4359" cy="62.5642" r="15.4359" fill="#EDF1FF"/>
<path d="M8.21625 1.70981H9.32679V2.2358H8.21625V1.70981Z" fill="#A4AFC1"/>
<path d="M10.0212 0H10.5765V1.05217H10.0212V0Z" fill="#A4AFC1"/>
<path d="M21.6815 1.70981H22.792V2.2358H21.6815V1.70981Z" fill="#A4AFC1"/>
<path d="M20.4323 0H20.9876V1.05217H20.4323V0Z" fill="#A4AFC1"/>
<path d="M11.3394 10.1924C11.876 10.1924 12.3111 9.78028 12.3111 9.27184C12.3111 8.76341 11.876 8.35124 11.3394 8.35124C10.8027 8.35124 10.3677 8.76341 10.3677 9.27184C10.3677 9.78028 10.8027 10.1924 11.3394 10.1924Z" fill="#F3F3F1"/>
<path d="M13.4216 13.2171V12.5595C13.4216 11.9782 12.9247 11.5074 12.3111 11.5074H10.3677C9.75412 11.5074 9.25717 11.9782 9.25717 12.5595V13.2171H13.4216Z" fill="#F3F3F1"/>
<path d="M19.6682 10.1924C20.2048 10.1924 20.6399 9.78028 20.6399 9.27184C20.6399 8.76341 20.2048 8.35124 19.6682 8.35124C19.1315 8.35124 18.6965 8.76341 18.6965 9.27184C18.6965 9.78028 19.1315 10.1924 19.6682 10.1924Z" fill="#F3F3F1"/>
<path d="M21.7504 13.2171V12.5595C21.7504 11.9782 21.2535 11.5074 20.6399 11.5074H18.6965C18.0829 11.5074 17.586 11.9782 17.586 12.5595V13.2171H21.7504Z" fill="#F3F3F1"/>
<path d="M13.841 5.4247C13.1369 4.87918 12.7315 3.9991 12.9076 3.04011C13.0875 2.0564 13.907 1.24576 14.9387 1.04218C16.6411 0.706556 18.1415 1.93067 18.1415 3.48515C18.1415 4.28633 17.7417 4.99912 17.1231 5.45784C16.7561 5.73033 16.559 6.16012 16.559 6.60252V8.11439C16.559 8.38899 16.3213 8.61414 16.0315 8.61414H14.9765C14.6866 8.61414 14.449 8.39425 14.449 7.9692V6.60252C14.449 6.1417 14.2174 5.71613 13.841 5.4247Z" fill="#2F4BDF"/>
<path d="M11.617 9.27184C11.617 8.98988 11.7536 8.74105 11.9641 8.57219C11.7947 8.43646 11.5787 8.35124 11.3394 8.35124C10.803 8.35124 10.3677 8.76367 10.3677 9.27184C10.3677 9.78002 10.803 10.1924 11.3394 10.1924C11.5787 10.1924 11.7947 10.1072 11.9641 9.9715C11.7536 9.80264 11.617 9.55381 11.617 9.27184Z" fill="#D5DBE1"/>
<path d="M11.617 11.5074H10.3677C9.75413 11.5074 9.25717 11.9782 9.25717 12.5595V13.2171H10.5065V12.5595C10.5065 11.9782 11.0035 11.5074 11.617 11.5074Z" fill="#D5DBE1"/>
<path d="M19.9458 9.27184C19.9458 8.98988 20.0824 8.74105 20.2928 8.57219C20.1235 8.43646 19.9075 8.35124 19.6682 8.35124C19.1318 8.35124 18.6965 8.76367 18.6965 9.27184C18.6965 9.78002 19.1318 10.1924 19.6682 10.1924C19.9075 10.1924 20.1235 10.1072 20.2928 9.9715C20.0824 9.80264 19.9458 9.55381 19.9458 9.27184Z" fill="#D5DBE1"/>
<path d="M19.9458 11.5074H18.6965C18.0829 11.5074 17.586 11.9782 17.586 12.5595V13.2171H18.8353V12.5595C18.8353 11.9782 19.3323 11.5074 19.9458 11.5074Z" fill="#D5DBE1"/>
<path d="M15.6981 7.96934V6.60266C15.6981 6.14184 15.4665 5.71626 15.0901 5.4243C14.386 4.87878 13.9807 3.9987 14.1567 3.0397C14.3332 2.07545 15.1256 1.28059 16.129 1.05807C15.7564 0.972845 15.3538 0.960219 14.9385 1.04228C13.9068 1.24587 13.0872 2.05651 12.9073 3.04023C12.7319 3.99923 13.1372 4.87931 13.8407 5.42483C14.2172 5.71679 14.4487 6.14236 14.4487 6.60318V7.96987C14.4487 8.39439 14.6864 8.61428 14.9762 8.61428H16.0312C16.0662 8.61428 16.0973 8.60166 16.1301 8.59535C15.8869 8.55011 15.6981 8.34495 15.6981 7.96934Z" fill="#384AEA"/>
<path d="M14.4494 6.64144H16.5599V7.43066H14.4494V6.64144Z" fill="black"/>
<path d="M16.0314 9.00842H14.9765C14.5217 9.00842 14.0325 8.68333 14.0325 7.96896V6.60231C14.0325 6.27195 13.8665 5.9537 13.5777 5.72961C12.7088 5.05627 12.3045 4.02576 12.4972 2.97262C12.7077 1.82322 13.6549 0.892127 14.8537 0.655935C15.7749 0.475503 16.7133 0.688023 17.4302 1.23984C18.1464 1.79218 18.5579 2.6107 18.5579 3.48499C18.5579 4.38031 18.1287 5.21251 17.3802 5.76801C17.127 5.9558 16.9754 6.26774 16.9754 6.60178V8.11415C16.9754 8.60705 16.5523 9.00842 16.0314 9.00842ZM15.4978 1.38187C15.3401 1.38187 15.1813 1.39713 15.0231 1.42816C14.1558 1.59913 13.47 2.27404 13.3179 3.10676C13.1774 3.87583 13.4711 4.62807 14.1047 5.11834C14.5883 5.49289 14.8654 6.03418 14.8654 6.60178V7.96844C14.8654 7.99421 14.8687 8.21883 14.9765 8.21883H16.0314C16.0914 8.21883 16.1425 8.17044 16.1425 8.11363V6.60126C16.1425 6.02682 16.4129 5.48289 16.866 5.14622C17.4124 4.7417 17.725 4.13623 17.725 3.48499C17.725 2.84953 17.4257 2.25405 16.9038 1.85215C16.5051 1.54442 16.0098 1.38187 15.4978 1.38187Z" fill="black"/>
<path d="M17.1697 3.74806H16.3368V3.35352C16.3368 2.99107 16.0253 2.69595 15.6427 2.69595H15.2263V1.90686H15.6427C16.485 1.90686 17.1697 2.55549 17.1697 3.35352V3.74806Z" fill="#B1BFF4"/>
<path d="M11.3402 10.5868C10.5745 10.5868 9.9521 9.99658 9.9521 9.27171C9.9521 8.54685 10.5745 7.95664 11.3402 7.95664C12.1059 7.95664 12.7284 8.54685 12.7284 9.27171C12.7284 9.99658 12.1059 10.5868 11.3402 10.5868ZM11.3402 8.74569C11.0337 8.74569 10.785 8.98187 10.785 9.27171C10.785 9.56156 11.0337 9.79774 11.3402 9.79774C11.6467 9.79774 11.8955 9.56156 11.8955 9.27171C11.8955 8.98187 11.6467 8.74569 11.3402 8.74569Z" fill="black"/>
<path d="M13.8384 13.2171H13.0055V12.5595C13.0055 12.197 12.694 11.9019 12.3115 11.9019H10.3681C9.98549 11.9019 9.67399 12.197 9.67399 12.5595V13.2171H8.8411V12.5595C8.8411 11.7615 9.52573 11.1128 10.3681 11.1128H12.3115C13.1538 11.1128 13.8384 11.7615 13.8384 12.5595V13.2171Z" fill="black"/>
<path d="M19.6685 10.5868C18.9028 10.5868 18.2804 9.99658 18.2804 9.27171C18.2804 8.54685 18.9028 7.95664 19.6685 7.95664C20.4343 7.95664 21.0567 8.54685 21.0567 9.27171C21.0567 9.99658 20.4343 10.5868 19.6685 10.5868ZM19.6685 8.74569C19.362 8.74569 19.1133 8.98187 19.1133 9.27171C19.1133 9.56156 19.362 9.79774 19.6685 9.79774C19.9751 9.79774 20.2238 9.56156 20.2238 9.27171C20.2238 8.98187 19.9751 8.74569 19.6685 8.74569Z" fill="black"/>
<path d="M22.1672 13.2171H21.3343V12.5595C21.3343 12.197 21.0228 11.9019 20.6403 11.9019H18.6968C18.3143 11.9019 18.0028 12.197 18.0028 12.5595V13.2171H17.1699V12.5595C17.1699 11.7615 17.8545 11.1128 18.6968 11.1128H20.6403C21.4826 11.1128 22.1672 11.7615 22.1672 12.5595V13.2171Z" fill="black"/>
<path d="M6.62009 12.4279H24.3885V13.2169H6.62009V12.4279Z" fill="black"/>
</svg>
