<svg width="31" height="31" viewBox="0 0 31 31" fill="none" xmlns="http://www.w3.org/2000/svg">
<circle cx="15.5" cy="15.5" r="15.5" fill="#FD9B79" fill-opacity="0.15"/>
<path d="M22.4754 9.30036H23.4872V9.80626H22.4754V9.30036Z" fill="#A4AFC1"/>
<path d="M21.1318 7.59162H21.6377V8.60343H21.1318V7.59162Z" fill="#A4AFC1"/>
<path d="M20.3729 20.9977H11.0137C10.4547 20.9977 10.0019 20.5449 10.0019 19.9858V10.6266C10.0019 10.0676 10.4547 9.61482 11.0137 9.61482H20.3729C20.9319 9.61482 21.3847 10.0676 21.3847 10.6266V19.9858C21.3847 20.5449 20.9319 20.9977 20.3729 20.9977Z" fill="#F3F3F1"/>
<path d="M16.5786 17.4563H12.7843C12.3654 17.4563 12.0255 17.1163 12.0255 16.6974V13.9149C12.0255 13.496 12.3654 13.1561 12.7843 13.1561H16.5786C16.9975 13.1561 17.3375 13.496 17.3375 13.9149V16.6974C17.3375 17.1163 16.9975 17.4563 16.5786 17.4563Z" fill="#FD9B79"/>
<path d="M17.3369 14.6741L18.9735 13.6511C19.142 13.5459 19.3605 13.6668 19.3605 13.8656V16.7473C19.3605 16.9461 19.142 17.067 18.9735 16.9618L17.3369 15.9388V14.6741Z" fill="#FD9B79"/>
<path d="M11.1402 19.9858V10.6266C11.1402 10.0676 11.593 9.61482 12.152 9.61482H11.0137C10.4547 9.61482 10.0019 10.0676 10.0019 10.6266V19.9858C10.0019 20.5449 10.4547 20.9977 11.0137 20.9977H12.152C11.593 20.9977 11.1402 20.5449 11.1402 19.9858Z" fill="#D5DBE1"/>
<path d="M13.1638 16.6974V13.9149C13.1638 13.496 13.5037 13.1561 13.9226 13.1561H12.7843C12.3654 13.1561 12.0255 13.496 12.0255 13.9149V16.6974C12.0255 17.1163 12.3654 17.4563 12.7843 17.4563H13.9226C13.5037 17.4563 13.1638 17.1163 13.1638 16.6974Z" fill="#FD9B79"/>
<path d="M18.4752 15.9388V14.6741L19.3605 14.1206V13.8656C19.3605 13.6668 19.142 13.5459 18.9735 13.6511L17.3369 14.6741V15.9388L18.9735 16.9618C19.142 17.067 19.3605 16.9461 19.3605 16.7473V16.4923L18.4752 15.9388Z" fill="#FD9B79"/>
<path d="M20.3732 21.3771H11.014C10.2465 21.3771 9.62275 20.7533 9.62275 19.9859V10.6267C9.62275 9.85921 10.2465 9.23543 11.014 9.23543H20.3732C21.1407 9.23543 21.7644 9.85921 21.7644 10.6267V19.9859C21.7644 20.7533 21.1407 21.3771 20.3732 21.3771ZM11.014 9.99429C10.6654 9.99429 10.3816 10.2781 10.3816 10.6267V19.9859C10.3816 20.3345 10.6654 20.6183 11.014 20.6183H20.3732C20.7218 20.6183 21.0056 20.3345 21.0056 19.9859V10.6267C21.0056 10.2781 20.7218 9.99429 20.3732 9.99429H11.014Z" fill="#FD9B79"/>
<path d="M16.5789 17.8358H12.7846C12.1573 17.8358 11.6463 17.3254 11.6463 16.6976V13.9151C11.6463 13.2873 12.1573 12.7768 12.7846 12.7768H16.5789C17.2062 12.7768 17.7172 13.2873 17.7172 13.9151V16.6976C17.7172 17.3254 17.2062 17.8358 16.5789 17.8358ZM12.7846 13.5357C12.5757 13.5357 12.4052 13.7057 12.4052 13.9151V16.6976C12.4052 16.907 12.5757 17.077 12.7846 17.077H16.5789C16.7878 17.077 16.9583 16.907 16.9583 16.6976V13.9151C16.9583 13.7057 16.7878 13.5357 16.5789 13.5357H12.7846Z" fill="#FD9B79"/>
<path d="M19.1082 17.3798C18.9923 17.3798 18.8755 17.3479 18.7733 17.2842L17.1367 16.2612L17.5389 15.6177L18.9822 16.5197V14.0949L17.5389 14.997L17.1367 14.3535L18.7733 13.3305C18.9686 13.2086 19.2139 13.2025 19.4153 13.3138C19.6156 13.4251 19.7411 13.6376 19.7411 13.8673V16.7484C19.7411 16.9781 19.6161 17.1906 19.4153 17.3019C19.3197 17.3535 19.2139 17.3798 19.1082 17.3798Z" fill="#FD9B79"/>
<path d="M7.59868 20.6182H23.7876V21.3771H7.59868V20.6182Z" fill="#FD9B79"/>
</svg>
