<svg width="80" height="80" viewBox="0 0 80 80" fill="none" xmlns="http://www.w3.org/2000/svg">
<circle cx="40" cy="40" r="40" fill="#FD9B79" fill-opacity="0.15"/>
<path d="M58 24H60.6111V25.3056H58V24Z" fill="#A4AFC1"/>
<path d="M54.5347 19.5903H55.8402V22.2014H54.5347V19.5903Z" fill="#A4AFC1"/>
<path d="M52.5764 54.1875H28.4236C26.981 54.1875 25.8125 53.019 25.8125 51.5764V27.4236C25.8125 25.981 26.981 24.8125 28.4236 24.8125H52.5764C54.019 24.8125 55.1875 25.981 55.1875 27.4236V51.5764C55.1875 53.019 54.019 54.1875 52.5764 54.1875Z" fill="#F3F3F1"/>
<path d="M42.7847 45.0486H32.993C31.912 45.0486 31.0347 44.1713 31.0347 43.0903V35.9097C31.0347 34.8287 31.912 33.9514 32.993 33.9514H42.7847C43.8657 33.9514 44.743 34.8287 44.743 35.9097V43.0903C44.743 44.1713 43.8657 45.0486 42.7847 45.0486Z" fill="#FD9B79"/>
<path d="M44.743 37.868L48.9665 35.2282C49.4013 34.9566 49.9653 35.2686 49.9653 35.7817V43.2182C49.9653 43.7313 49.4013 44.0433 48.9665 43.7717L44.743 41.1319V37.868Z" fill="#FD9B79"/>
<path d="M28.75 51.5764V27.4236C28.75 25.981 29.9185 24.8125 31.3611 24.8125H28.4236C26.981 24.8125 25.8125 25.981 25.8125 27.4236V51.5764C25.8125 53.019 26.981 54.1875 28.4236 54.1875H31.3611C29.9185 54.1875 28.75 53.019 28.75 51.5764Z" fill="#D5DBE1"/>
<path d="M33.9722 43.0903V35.9097C33.9722 34.8287 34.8495 33.9514 35.9305 33.9514H32.993C31.912 33.9514 31.0347 34.8287 31.0347 35.9097V43.0903C31.0347 44.1713 31.912 45.0486 32.993 45.0486H35.9305C34.8495 45.0486 33.9722 44.1713 33.9722 43.0903Z" fill="#FD9B79"/>
<path d="M47.6805 41.1319V37.868L49.9653 36.4397V35.7817C49.9653 35.2686 49.4013 34.9566 48.9665 35.2282L44.743 37.868V41.1319L48.9665 43.7717C49.4013 44.0433 49.9653 43.7313 49.9653 43.2182V42.5602L47.6805 41.1319Z" fill="#FD9B79"/>
<path d="M52.5764 55.1666H28.4237C26.4431 55.1666 24.8334 53.5568 24.8334 51.5763V27.4235C24.8334 25.443 26.4431 23.8333 28.4237 23.8333H52.5764C54.557 23.8333 56.1667 25.443 56.1667 27.4235V51.5763C56.1667 53.5568 54.557 55.1666 52.5764 55.1666ZM28.4237 25.7916C27.5241 25.7916 26.7917 26.524 26.7917 27.4235V51.5763C26.7917 52.4758 27.5241 53.2083 28.4237 53.2083H52.5764C53.476 53.2083 54.2084 52.4758 54.2084 51.5763V27.4235C54.2084 26.524 53.476 25.7916 52.5764 25.7916H28.4237Z" fill="#FD9B79"/>
<path d="M42.7847 46.0277H32.993C31.3742 46.0277 30.0555 44.7104 30.0555 43.0902V35.9097C30.0555 34.2895 31.3742 32.9722 32.993 32.9722H42.7847C44.4036 32.9722 45.7222 34.2895 45.7222 35.9097V43.0902C45.7222 44.7104 44.4036 46.0277 42.7847 46.0277ZM32.993 34.9305C32.4538 34.9305 32.0139 35.3692 32.0139 35.9097V43.0902C32.0139 43.6307 32.4538 44.0694 32.993 44.0694H42.7847C43.3239 44.0694 43.7639 43.6307 43.7639 43.0902V35.9097C43.7639 35.3692 43.3239 34.9305 42.7847 34.9305H32.993Z" fill="#FD9B79"/>
<path d="M49.3125 44.8503C49.0135 44.8503 48.7119 44.768 48.4482 44.6035L44.2247 41.9637L45.2626 40.303L48.9874 42.6308V36.3733L45.2626 38.7011L44.2247 37.0404L48.4482 34.4006C48.9521 34.086 49.5853 34.0703 50.105 34.3575C50.622 34.6447 50.9457 35.1931 50.9457 35.7858V43.2209C50.9457 43.8137 50.6233 44.362 50.105 44.6492C49.8582 44.7824 49.5853 44.8503 49.3125 44.8503Z" fill="#FD9B79"/>
<path d="M19.6111 53.2083H61.3889V55.1666H19.6111V53.2083Z" fill="#FD9B79"/>
</svg>
