<svg width="23" height="19" viewBox="0 0 23 19" fill="none" xmlns="http://www.w3.org/2000/svg">
<path d="M22.9042 2.23369C22.1412 2.5625 21.3375 2.78753 20.5147 2.90275C20.897 2.90275 21.4466 2.162 21.7095 1.88721C22.055 1.47049 22.3185 0.992133 22.4861 0.477403C22.4861 0.477403 22.4861 0.381825 22.4861 0.35793C22.4661 0.346395 22.4434 0.340328 22.4203 0.340328C22.3972 0.340328 22.3746 0.346395 22.3546 0.35793C21.4812 0.820071 20.5543 1.17318 19.5947 1.40932C19.5661 1.42736 19.533 1.43693 19.4992 1.43693C19.4654 1.43693 19.4322 1.42736 19.4036 1.40932C19.3301 1.32001 19.2503 1.23615 19.1647 1.15841C18.7675 0.814261 18.3151 0.539594 17.8265 0.34598C17.177 0.0759408 16.4733 -0.0386117 15.7716 0.0114511C15.0908 0.0610562 14.4272 0.248706 13.8213 0.562968C13.2154 0.877229 12.6798 1.31152 12.2471 1.83942C11.8 2.39156 11.4816 3.03644 11.3151 3.72713C11.1838 4.3817 11.1838 5.05584 11.3151 5.71042C11.3151 5.81794 11.3151 5.82989 11.2195 5.81794C7.57085 5.45623 4.1863 3.75328 1.72133 1.03894C1.6138 0.907515 1.55404 0.907515 1.47041 1.03894C0.968106 1.9481 0.775661 2.99616 0.922253 4.02446C1.06884 5.05276 1.54648 6.00531 2.28283 6.7379L2.86824 7.25164C2.23224 7.19574 1.61232 7.0215 1.04031 6.7379C0.920838 6.66622 0.873019 6.73789 0.861072 6.83347C0.843498 7.01226 0.843498 7.19234 0.861072 7.37112C0.974132 8.22697 1.31244 9.03743 1.84143 9.71966C2.37042 10.4019 3.07114 10.9314 3.87187 11.254C4.06628 11.3427 4.27096 11.407 4.4812 11.4452C3.88351 11.5392 3.2748 11.5392 2.67712 11.4452C2.54569 11.4452 2.49792 11.4452 2.54571 11.6125C2.85256 12.4185 3.36058 13.1326 4.02143 13.6868C4.68227 14.241 5.47392 14.6168 6.32109 14.7786C6.49384 14.79 6.66553 14.814 6.83482 14.8503C6.10168 15.5149 5.21494 15.987 4.25419 16.2242C2.99898 16.6704 1.6625 16.8415 0.335379 16.726C0.120324 16.726 0.0844695 16.726 0.024732 16.726C-0.0350055 16.726 0.0247903 16.8096 0.0845279 16.8694C0.347373 17.0367 0.622157 17.192 0.896949 17.3473C1.72849 17.7914 2.6058 18.1439 3.51345 18.3987C5.84275 19.094 8.31313 19.1699 10.6807 18.6189C13.0483 18.0678 15.2312 16.9089 17.0141 15.2565C18.2965 13.8639 19.2878 12.2293 19.93 10.4485C20.5721 8.66765 20.8522 6.77652 20.7537 4.88603C20.7537 4.74266 20.9329 4.65903 21.0404 4.5754C21.7419 4.02933 22.3614 3.3856 22.8803 2.6638C22.9604 2.55714 23.0025 2.42676 22.9998 2.29343C22.9998 2.29343 22.9998 2.19784 22.9042 2.23369Z" fill="white"/>
</svg>
