<svg width="20" height="20" viewBox="0 0 20 20" fill="none" xmlns="http://www.w3.org/2000/svg">
<g clip-path="url(#clip0_4636_539)">
<path d="M4.99992 0C4.60542 0 4.28562 0.319795 4.28562 0.714296V2.14285H5.71417V0.714296C5.71417 0.319795 5.39438 0 4.99992 0Z" fill="white"/>
<path d="M15 0C14.6055 0 14.2858 0.319795 14.2858 0.714296V2.14285H15.7143V0.714296C15.7143 0.319795 15.3946 0 15 0Z" fill="white"/>
<path d="M17.8571 2.14307H15.7142V5.00021C15.7142 5.39471 15.3944 5.71451 14.9999 5.71451C14.6054 5.71451 14.2856 5.39471 14.2856 5.00021V2.14307H5.71424V5.00021C5.71424 5.39471 5.39445 5.71451 4.99995 5.71451C4.60545 5.71451 4.28565 5.39471 4.28565 5.00021V2.14307H2.14285C0.959384 2.14307 0 3.10245 0 4.28591V17.8573C0 19.0407 0.959384 20.0001 2.14285 20.0001H17.8571C19.0405 20.0001 19.9999 19.0407 19.9999 17.8573V4.28591C19.9999 3.10245 19.0405 2.14307 17.8571 2.14307ZM18.5713 17.8573C18.5713 18.2518 18.2515 18.5716 17.857 18.5716H2.14285C1.74835 18.5716 1.42855 18.2518 1.42855 17.8573V8.57161H18.5713V17.8573Z" fill="white"/>
<path d="M5.71428 9.99987H4.28573C3.89123 9.99987 3.57144 10.3197 3.57144 10.7142C3.57144 11.1087 3.89123 11.4285 4.28573 11.4285H5.71428C6.10879 11.4285 6.42858 11.1087 6.42858 10.7142C6.42858 10.3197 6.10879 9.99987 5.71428 9.99987Z" fill="white"/>
<path d="M10.7141 9.99987H9.28554C8.89104 9.99987 8.57125 10.3197 8.57125 10.7142C8.57125 11.1087 8.89104 11.4285 9.28554 11.4285H10.7141C11.1086 11.4285 11.4284 11.1087 11.4284 10.7142C11.4284 10.3197 11.1086 9.99987 10.7141 9.99987Z" fill="white"/>
<path d="M15.7139 9.99987H14.2854C13.8908 9.99987 13.5711 10.3197 13.5711 10.7142C13.5711 11.1087 13.8908 11.4285 14.2854 11.4285H15.7139C16.1084 11.4285 16.4282 11.1087 16.4282 10.7142C16.4282 10.3197 16.1084 9.99987 15.7139 9.99987Z" fill="white"/>
<path d="M5.71428 12.8571H4.28573C3.89123 12.8571 3.57144 13.1769 3.57144 13.5714C3.57144 13.9659 3.89123 14.2857 4.28573 14.2857H5.71428C6.10879 14.2857 6.42858 13.9659 6.42858 13.5714C6.42858 13.1769 6.10879 12.8571 5.71428 12.8571Z" fill="white"/>
<path d="M10.7141 12.8571H9.28554C8.89104 12.8571 8.57125 13.1769 8.57125 13.5714C8.57125 13.9659 8.89104 14.2857 9.28554 14.2857H10.7141C11.1086 14.2857 11.4284 13.9659 11.4284 13.5714C11.4284 13.1769 11.1086 12.8571 10.7141 12.8571Z" fill="white"/>
<path d="M15.7139 12.8571H14.2854C13.8908 12.8571 13.5711 13.1769 13.5711 13.5714C13.5711 13.9659 13.8908 14.2857 14.2854 14.2857H15.7139C16.1084 14.2857 16.4282 13.9659 16.4282 13.5714C16.4282 13.1769 16.1084 12.8571 15.7139 12.8571Z" fill="white"/>
<path d="M5.71428 15.7146H4.28573C3.89123 15.7146 3.57144 16.0344 3.57144 16.4289C3.57144 16.8234 3.89123 17.1432 4.28573 17.1432H5.71428C6.10879 17.1432 6.42858 16.8234 6.42858 16.4289C6.42858 16.0344 6.10879 15.7146 5.71428 15.7146Z" fill="white"/>
<path d="M10.7141 15.7146H9.28554C8.89104 15.7146 8.57125 16.0344 8.57125 16.4289C8.57125 16.8234 8.89104 17.1432 9.28554 17.1432H10.7141C11.1086 17.1432 11.4284 16.8234 11.4284 16.4289C11.4284 16.0344 11.1086 15.7146 10.7141 15.7146Z" fill="white"/>
<path d="M15.7139 15.7146H14.2854C13.8908 15.7146 13.5711 16.0344 13.5711 16.4289C13.5711 16.8234 13.8908 17.1432 14.2854 17.1432H15.7139C16.1084 17.1432 16.4282 16.8234 16.4282 16.4289C16.4282 16.0344 16.1084 15.7146 15.7139 15.7146Z" fill="white"/>
</g>
<defs>
<clipPath id="clip0_4636_539">
<rect width="19.0885" height="19.0885" fill="white" transform="scale(1.04774)"/>
</clipPath>
</defs>
</svg>
