<svg width="39" height="39" viewBox="0 0 39 39" fill="none" xmlns="http://www.w3.org/2000/svg">
<rect width="39" height="39" rx="7.63542" fill="#3ADAD9"/>
<g clip-path="url(#clip0_4636_16)">
<path d="M19.3469 12.6506C19.0224 12.6506 18.759 12.3872 18.759 12.0627V10.5288C18.759 10.2043 19.0224 9.9409 19.3469 9.9409C19.6714 9.9409 19.9347 10.2043 19.9347 10.5288V12.0627C19.9347 12.3872 19.6714 12.6506 19.3469 12.6506Z" fill="white"/>
<path d="M24.4976 14.7843C24.3471 14.7843 24.1966 14.7271 24.0822 14.6119C23.8525 14.3822 23.8525 14.0099 24.0822 13.7803L25.167 12.6954C25.3966 12.4658 25.7689 12.4658 25.9986 12.6954C26.2283 12.9251 26.2283 13.2974 25.9986 13.5271L24.9138 14.6119C24.7986 14.7263 24.6481 14.7843 24.4976 14.7843Z" fill="white"/>
<path d="M28.1648 19.935H26.6309C26.3064 19.935 26.043 19.6716 26.043 19.3471C26.043 19.0226 26.3064 18.7592 26.6309 18.7592H28.1648C28.4893 18.7592 28.7527 19.0226 28.7527 19.3471C28.7527 19.6716 28.4893 19.935 28.1648 19.935Z" fill="white"/>
<path d="M25.5824 26.1702C25.4319 26.1702 25.2814 26.113 25.167 25.9977L24.0822 24.9129C23.8525 24.6833 23.8525 24.311 24.0822 24.0813C24.3118 23.8516 24.6841 23.8516 24.9138 24.0813L25.9986 25.1661C26.2283 25.3958 26.2283 25.7681 25.9986 25.9977C25.8834 26.113 25.7329 26.1702 25.5824 26.1702Z" fill="white"/>
<path d="M13.1116 26.1702C12.9611 26.1702 12.8106 26.113 12.6962 25.9977C12.4665 25.7681 12.4665 25.3958 12.6962 25.1661L13.781 24.0813C14.0106 23.8516 14.383 23.8516 14.6126 24.0813C14.8423 24.311 14.8423 24.6833 14.6126 24.9129L13.5278 25.9977C13.4126 26.113 13.2621 26.1702 13.1116 26.1702Z" fill="white"/>
<path d="M12.0627 19.935H10.5288C10.2043 19.935 9.9409 19.6716 9.9409 19.3471C9.9409 19.0226 10.2043 18.7592 10.5288 18.7592H12.0627C12.3872 18.7592 12.6506 19.0226 12.6506 19.3471C12.6506 19.6716 12.3872 19.935 12.0627 19.935Z" fill="white"/>
<path d="M14.1964 14.7843C14.0459 14.7843 13.8954 14.7271 13.781 14.6119L12.6962 13.5271C12.4665 13.2974 12.4665 12.9251 12.6962 12.6954C12.9258 12.4658 13.2982 12.4658 13.5278 12.6954L14.6126 13.7803C14.8423 14.0099 14.8423 14.3822 14.6126 14.6119C14.4966 14.7263 14.3469 14.7843 14.1964 14.7843Z" fill="white"/>
<path d="M21.699 26.4015V27.3813C21.699 28.1337 21.0798 28.753 20.3273 28.753H18.3678C17.7093 28.753 16.9961 28.2513 16.9961 27.154V26.4015H21.699Z" fill="white"/>
<path d="M22.8039 15.083C21.5184 14.0405 19.8254 13.6329 18.1715 13.9856C16.0944 14.4167 14.4091 16.1098 13.978 18.1869C13.5391 20.3189 14.3386 22.4352 16.0473 23.7285C16.5098 24.0734 16.8312 24.6064 16.9409 25.2256V25.2335C16.9566 25.2256 16.9801 25.2256 16.9958 25.2256H21.6987C21.7144 25.2256 21.7222 25.2256 21.7379 25.2335V25.2256C21.8476 24.6299 22.2003 24.0813 22.7412 23.658C24.0658 22.6077 24.834 21.04 24.834 19.347C24.834 17.6853 24.0972 16.1333 22.8039 15.083ZM19.0533 19.151H19.6412C20.5598 19.151 21.3068 19.898 21.3068 20.8166C21.3068 21.6342 20.7134 22.313 19.9351 22.4525V23.462C19.9351 23.7865 19.6717 24.0499 19.3472 24.0499C19.0227 24.0499 18.7594 23.7865 18.7594 23.462V22.4823H17.9755C17.651 22.4823 17.3877 22.2189 17.3877 21.8944C17.3877 21.5699 17.651 21.3065 17.9755 21.3065H19.6412C19.9116 21.3065 20.131 21.0871 20.131 20.8166C20.131 20.5462 19.9116 20.3268 19.6412 20.3268H19.0533C18.1347 20.3268 17.3877 19.5798 17.3877 18.6611C17.3877 17.8436 17.981 17.1648 18.7594 17.0253V16.0157C18.7594 15.6912 19.0227 15.4279 19.3472 15.4279C19.6717 15.4279 19.9351 15.6912 19.9351 16.0157V16.9955H20.7189C21.0434 16.9955 21.3068 17.2589 21.3068 17.5834C21.3068 17.9079 21.0434 18.1712 20.7189 18.1712H19.0533C18.7829 18.1712 18.5634 18.3907 18.5634 18.6611C18.5634 18.9316 18.7829 19.151 19.0533 19.151Z" fill="white"/>
<path d="M16.9408 25.2256H16.9974C16.9812 25.2256 16.957 25.2256 16.9408 25.2337V25.2256Z" fill="white"/>
<path d="M21.7404 25.2256V25.2341C21.7235 25.2256 21.715 25.2256 21.698 25.2256H21.7404Z" fill="white"/>
</g>
<defs>
<clipPath id="clip0_4636_16">
<rect width="18.7831" height="18.7831" fill="white" transform="translate(9.9409 9.9409) scale(1.00152)"/>
</clipPath>
</defs>
</svg>
