<svg width="80" height="80" viewBox="0 0 80 80" fill="none" xmlns="http://www.w3.org/2000/svg">
<circle cx="40" cy="40" r="40" fill="#3ADAD9" fill-opacity="0.15"/>
<path d="M31.6257 21.0024L33.5899 19.0383L34.572 20.0203L32.6078 21.9845L31.6257 21.0024Z" fill="#A4AFC1"/>
<path d="M25.9785 26.6475L27.9427 24.6833L28.9248 25.6654L26.9606 27.6296L25.9785 26.6475Z" fill="#A4AFC1"/>
<path d="M26.2249 20.0186L27.2069 19.0365L29.1711 21.0006L28.189 21.9827L26.2249 20.0186Z" fill="#A4AFC1"/>
<path d="M35.8333 32.7083V44.1666L27.7458 52.2819C29.8181 54.3471 32.6764 55.6249 35.8333 55.6249C42.1611 55.6249 47.2917 50.4944 47.2917 44.1666C47.2917 37.8388 42.1611 32.7083 35.8333 32.7083Z" fill="#F3F3F1"/>
<path d="M27.7361 52.2916L35.8333 44.1666V32.7083C29.5 32.7083 24.375 37.8333 24.375 44.1666C24.375 47.3333 25.6667 50.2083 27.7361 52.2916Z" fill="#3ADAD9"/>
<path d="M55.6251 25.7639V32.0139C55.6251 32.7806 55.0029 33.4028 54.2362 33.4028H49.0279L45.2084 37.5694V33.4028H42.4306C41.664 33.4028 41.0417 32.7806 41.0417 32.0139V25.7639C41.0417 24.9972 41.664 24.375 42.4306 24.375H54.2362C55.0029 24.375 55.6251 24.9972 55.6251 25.7639Z" fill="#3ADAD9"/>
<path d="M30.8708 52.2819L38.9583 44.1666V33.1513C37.9639 32.8694 36.9181 32.7083 35.8333 32.7083V44.1666L27.7458 52.2819C29.8181 54.3471 32.6764 55.6249 35.8333 55.6249C36.3653 55.6249 36.8833 55.5763 37.3958 55.5055C34.8653 55.1596 32.5945 53.9999 30.8708 52.2819Z" fill="#D5DBE1"/>
<path d="M27.5 44.1666C27.5 38.918 31.0236 34.5096 35.8333 33.1499V32.7083C29.5 32.7083 24.375 37.8333 24.375 44.1666C24.375 47.3333 25.6667 50.2083 27.7361 52.2916L29.4514 50.5694C28.2222 48.7374 27.5 46.5333 27.5 44.1666Z" fill="#384AEA"/>
<path d="M48.3334 34.1597V33.4028H45.5556C44.789 33.4028 44.1667 32.7806 44.1667 32.0139V25.7639C44.1667 24.9972 44.789 24.375 45.5556 24.375H42.4306C41.664 24.375 41.0417 24.9972 41.0417 25.7639V32.0139C41.0417 32.7806 41.664 33.4028 42.4306 33.4028H45.2084V37.5694L48.3334 34.1597Z" fill="#384AEA"/>
<path d="M35.8333 56.6667C28.9402 56.6667 23.3333 51.0597 23.3333 44.1667C23.3333 37.0236 29.4194 31.25 36.568 31.6819L37.6083 31.7444L37.4846 33.8236L36.4458 33.7625C36.236 33.7486 36.0249 33.7528 35.8333 33.75C30.0888 33.75 25.4166 38.4222 25.4166 44.1667C25.4166 49.9111 30.0888 54.5833 35.8333 54.5833C41.5777 54.5833 46.2499 49.9111 46.2499 44.1667C46.2499 43.3139 46.143 42.4667 45.9319 41.65L45.6721 40.6403L47.6888 40.1208L47.9499 41.1292C48.2041 42.1153 48.3333 43.1389 48.3333 44.1667C48.3333 51.0597 42.7263 56.6667 35.8333 56.6667Z" fill="#3ADAD9"/>
<path d="M28.4875 53.0124L27.0125 51.5416L34.793 43.736V32.7083H36.8763V44.1666C36.8763 44.4416 36.7666 44.7069 36.5722 44.9013L28.4875 53.0124Z" fill="#3ADAD9"/>
<path d="M45.2083 38.611C45.0806 38.611 44.9528 38.5874 44.8319 38.5402C44.4292 38.3846 44.1667 37.9999 44.1667 37.5694V34.4444H42.4306C41.0903 34.4444 40 33.3541 40 32.0138V25.7638C40 24.4235 41.0903 23.3333 42.4306 23.3333H54.2361C55.5764 23.3333 56.6667 24.4235 56.6667 25.7638V32.0138C56.6667 33.3541 55.5764 34.4444 54.2361 34.4444H49.4861L45.9764 38.2735C45.775 38.493 45.4944 38.611 45.2083 38.611ZM42.4306 25.4166C42.2389 25.4166 42.0833 25.5721 42.0833 25.7638V32.0138C42.0833 32.2055 42.2389 32.361 42.4306 32.361H45.2083C45.7833 32.361 46.25 32.8277 46.25 33.4027V34.8916L48.2597 32.6985C48.4569 32.4833 48.7361 32.361 49.0278 32.361H54.2361C54.4278 32.361 54.5833 32.2055 54.5833 32.0138V25.7638C54.5833 25.5721 54.4278 25.4166 54.2361 25.4166H42.4306Z" fill="#3ADAD9"/>
<path d="M44.861 29.9305C44.7221 29.9305 44.5832 29.9027 44.4582 29.8472C44.3332 29.7916 44.2221 29.7222 44.1249 29.6249C43.9304 29.4305 43.8193 29.1666 43.8193 28.8888C43.8193 28.6111 43.9304 28.3472 44.1249 28.1527C44.2221 28.0555 44.3332 27.9722 44.4582 27.9305C44.7221 27.8194 44.9999 27.8194 45.2638 27.9305C45.3888 27.9722 45.4999 28.0555 45.5971 28.1527C45.7916 28.3472 45.9027 28.6111 45.9027 28.8888C45.9027 29.1666 45.7916 29.4305 45.5971 29.6249C45.4999 29.7222 45.3888 29.7916 45.2638 29.8472C45.1249 29.9027 44.9999 29.9305 44.861 29.9305Z" fill="#3ADAD9"/>
<path d="M48.3334 29.9304C48.0556 29.9304 47.7917 29.8193 47.5973 29.6249C47.5001 29.5276 47.4167 29.4165 47.3751 29.2915C47.3195 29.1526 47.2917 29.0276 47.2917 28.8887C47.2917 28.611 47.4029 28.3471 47.5973 28.1526C47.6945 28.0554 47.8056 27.986 47.9306 27.9304C48.3195 27.7637 48.7779 27.861 49.0695 28.1526C49.264 28.3471 49.3751 28.611 49.3751 28.8887C49.3751 29.0276 49.3473 29.1665 49.2917 29.2915C49.2362 29.4165 49.1667 29.5276 49.0695 29.6249C48.9723 29.7221 48.8612 29.7915 48.7362 29.8471C48.6112 29.9026 48.4723 29.9304 48.3334 29.9304Z" fill="#3ADAD9"/>
<path d="M51.8056 29.9305C51.6667 29.9305 51.5417 29.9027 51.4028 29.8472C51.2778 29.8055 51.1667 29.7222 51.0695 29.625C50.9722 29.5277 50.9028 29.4166 50.8472 29.2916C50.7917 29.1666 50.7639 29.0277 50.7639 28.8889C50.7639 28.6111 50.875 28.3472 51.0695 28.1528C51.4584 27.7639 52.1528 27.7639 52.5417 28.1528C52.6389 28.25 52.7222 28.3611 52.7639 28.4861C52.8195 28.6111 52.8472 28.75 52.8472 28.8889C52.8472 29.1666 52.7361 29.4305 52.5417 29.625C52.3472 29.8194 52.0834 29.9305 51.8056 29.9305Z" fill="#3ADAD9"/>
</svg>
